<svg xmlns="http://www.w3.org/2000/svg" viewBox="0 0 24 24">
  <path d="m3.05,11.96c0,4.41,3.56,7.99,7.95,7.99,2.23,0,4.29-.87,5.81-2.46.19-.2.19-.52-.01-.71-.2-.19-.52-.18-.71.02-1.33,1.39-3.14,2.15-5.09,2.15-3.83,0-6.95-3.14-6.95-6.99s3.12-6.98,6.95-7c1.85,0,3.65.71,4.97,2.02,1.19,1.18,1.9,2.7,2.04,4.34l-1.16-1.14c-.2-.19-.52-.19-.71.01s-.19.51.01.71l1.97,1.93c.1.09.23.14.35.14.13,0,.25-.05.35-.14l1.97-1.93c.2-.2.2-.51.01-.71s-.51-.2-.71-.01l-1.09,1.07c-.15-1.88-.97-3.63-2.32-4.98-1.5-1.49-3.5-2.31-5.64-2.31h-.05c-4.38.03-7.94,3.61-7.94,8Z" />
  <path d="m13.51,14.44c-.09.09-.22.14-.35.14s-.26-.05-.35-.14l-1.5-1.5c-.1.04-.2.06-.31.06-.55,0-1-.45-1-1,0-.37.2-.69.5-.86v-3.64c0-.28.23-.5.5-.5s.5.22.5.5v3.64c.3.17.5.49.5.86,0,.07-.01.14-.02.2l1.53,1.53c.2.2.2.51,0,.71Z" />
</svg>