<?xml version="1.0" encoding="UTF-8"?>
<svg id="a" data-name="Ebene 1" xmlns="http://www.w3.org/2000/svg" viewBox="0 0 1010 673">
  <rect width="1010" height="673" fill="#fff"/>
  <g>
    <line x1="416.57" y1="343.96" x2="416.29" y2="345.76" fill="none"/>
    <g>
      <path d="M244.58,288.2h88.51v15.81h-67.59v27.07h59.92v15.81h-59.92v40.33h-20.92v-99.01h0Z" fill="#231f20"/>
      <path d="M370.95,287.45h19.41l52.35,99.77h-22.06l-12.02-23.95h-56.23l-12.21,23.95h-21.39l52.16-99.77Zm29.91,60.49l-20.54-39.66-20.35,39.66h40.89Z" fill="#231f20"/>
      <path d="M456.14,288.2h53.29c13.63,0,24.33,3.12,31.05,8.8,5.3,4.35,7.95,9.75,7.95,16.38v.28c0,11.93-8.14,18.27-16.94,22.06,13.92,3.98,23.57,10.6,23.57,24.04v.28c0,17.7-17.51,27.17-44.02,27.17h-54.9v-99.01h0Zm71.56,28.02c0-7.76-7.48-12.59-20.92-12.59h-30.1v26.32h28.49c13.44,0,22.43-4.35,22.43-13.44,.09,0,.09-.28,.09-.28Zm-17.89,28.4h-33.13v27.17h34.65c14.29,0,22.91-4.64,22.91-13.63v-.28c0-8.24-7.95-13.25-24.42-13.25h0Z" fill="#231f20"/>
      <path d="M595.57,304.3h-37.67v-16.09h96.46v16.09h-37.67v82.92h-21.01l-.09-82.92h0Z" fill="#231f20"/>
      <path d="M666.19,288.2h88.13v15.52h-67.21v25.75h59.64v15.52h-59.64v26.6h68.06v15.52h-88.98v-98.92h0Z" fill="#231f20"/>
      <path d="M764.54,337.99v-.28c0-28.11,25.27-51.21,61.34-51.21,21.87,0,35.12,6.34,46.57,15.43l-13.44,12.87c-9.47-7.38-19.69-12.31-33.32-12.31-22.62,0-39.19,15.52-39.19,34.93v.28c0,19.41,16.47,35.12,39.19,35.12,14.58,0,23.95-4.83,34.17-12.78l13.44,11.36c-12.4,10.79-25.94,17.51-48.18,17.51-34.74,0-60.58-22.43-60.58-50.93h0Z" fill="#231f20"/>
      <path d="M884.95,288.2h20.83v41.18h56.7v-41.18h20.92v99.01h-20.92v-41.75h-56.7v41.75h-20.83v-99.01Z" fill="#231f20"/>
    </g>
    <g>
      <polygon points="120.29 384.38 152.09 405.58 192.7 387.41 160.9 366.3 120.29 384.38" fill="#97999a"/>
      <polygon points="183.8 288.01 152.28 267 27.33 322.94 58.95 343.96 183.8 288.01" fill="#97999a"/>
      <polygon points="75.51 355.41 104.38 374.63 193.65 334.68 164.78 315.47 75.51 355.41" fill="#97999a"/>
    </g>
    <polygon points="160.14 370.75 183.99 386.84 152.85 400.66 152.09 405.58 192.7 387.41 160.9 366.3 160.14 370.75" fill="#fff" isolation="isolate" opacity=".15"/>
    <polygon points="183.8 288.01 152.28 267 151.62 271.45 175.19 287.45 59.7 339.04 58.95 343.96 183.8 288.01" fill="#fff" isolation="isolate" opacity=".15"/>
    <polygon points="193.65 334.68 164.78 315.47 164.11 319.82 185.03 334.11 105.14 369.8 104.38 374.63 193.65 334.68" fill="#fff" isolation="isolate" opacity=".15"/>
  </g>
</svg>