<svg xmlns="http://www.w3.org/2000/svg" viewBox="0 0 24 24">
  <path d="m7.81,10.27c0-.73.13-1.27.4-1.62.26-.35.67-.53,1.21-.53s.94.18,1.21.53c.27.35.4.89.4,1.62s-.14,1.22-.42,1.59c-.28.37-.68.56-1.19.56s-.91-.19-1.19-.56c-.28-.37-.42-.9-.42-1.59Zm2.28-.11c0-.5-.06-.84-.17-1.02-.12-.18-.28-.27-.49-.27s-.39.11-.5.32c-.11.21-.17.57-.17,1.07s.06.86.17,1.08c.11.22.28.33.5.33s.39-.1.5-.31c.11-.2.17-.6.17-1.2Zm4.62-2.15l-4.65,7.97h-.77l4.65-7.97h.77Zm-1.74,5.71c0-.74.13-1.29.4-1.63.27-.34.67-.52,1.21-.52s.94.17,1.21.52.4.89.4,1.63c0,.68-.14,1.21-.41,1.58s-.67.56-1.2.56-.91-.19-1.19-.56c-.28-.37-.42-.9-.42-1.59Zm2.28-.11c0-.5-.06-.84-.17-1.02-.12-.18-.28-.27-.49-.27s-.39.11-.5.32c-.11.21-.17.57-.17,1.07s.06.86.17,1.08c.11.22.28.33.5.33s.39-.1.5-.31c.11-.2.17-.6.17-1.2Z" />
  <path d="m12,22c-5.51,0-10-4.49-10-10S6.49,2,12,2s10,4.49,10,10-4.49,10-10,10Zm0-19C7.04,3,3,7.04,3,12s4.04,9,9,9,9-4.04,9-9S16.96,3,12,3Z" />
</svg>