<svg xmlns="http://www.w3.org/2000/svg" viewBox="0 0 283.46 119.06" fill="#0050A0">
	<polygon points="249.99,41.11 249.99,49.23 269.31,49.23 249.24,70.42 249.24,77.97 283.46,77.97 283.46,69.85
	262.97,69.85 282.51,49.1 282.51,41.11 " />
	<path d="M282.02,27.33C252.43,11,188.87,0.04,141.94,0.01c-0.04,0-0.08,0-0.13,0c-0.03,0-0.05,0-0.08,0
		c-0.03,0-0.05,0-0.08,0c-0.04,0-0.08,0-0.13,0C94.59,0.04,31.03,11,1.45,27.33c-2.47,1.36-1.39,3.33,0.39,3.33h279.8
		C283.41,30.65,284.49,28.69,282.02,27.33" />
	<path d="M23.96,66.99c0,2.42-3.01,3.95-8.01,3.95c-4.31,0-8.01-1.05-11.91-2.58L0,74.81
		c4.52,2.37,10.06,3.84,16.36,3.84c12.53,0,18.21-5.11,18.21-11.8c0-7.69-7.19-10.27-14.85-11.06c-4.59-0.48-7.8-0.86-7.8-3.87
		c0-2.11,1.71-3.79,5.95-3.79c4.31,0,6.98,0.9,10.88,2.42l4.04-6.46c-4.52-2.37-8.76-3.63-15.06-3.63
		c-10.34,0-16.22,4.74-16.22,11.27c0,7.63,6.09,10.74,14.37,11.59C21.77,63.91,23.96,64.62,23.96,66.99" />
	<path d="M50.71,64.9V54.13c0-3.42,2.54-5.63,6.44-5.63c4.31,0,6.5,0.74,10.27,2.16l3.9-6.75
		c-4.31-2.26-8.15-3.53-14.17-3.53c-9.99,0-17.25,4.74-17.25,12.22v13.85c0,7.48,7.26,12.27,17.25,12.27
		c6.02,0,9.86-1.26,14.17-3.53l-3.9-6.75c-3.77,1.42-5.96,2.16-10.27,2.16C53.38,70.59,50.71,68.59,50.71,64.9" />
	<polygon points="101.29,41.11 101.29,55.08 88.42,55.08 88.42,41.11 77.61,41.11 77.61,77.97 88.42,77.97 88.42,63.91
	101.29,63.91 101.29,77.97 112.17,77.97 112.17,41.11 " />
	<polygon points="153.52,77.97 163.85,77.97 163.85,41.11 155.26,41.11 142.18,59.63 129.1,41.11 120.52,41.11
	120.52,77.97 130.85,77.97 130.85,59.9 139.31,71.05 145.06,71.05 153.52,59.9 " />
	<path d="M194.9,63.78h-10.3l5.12-11.75L194.9,63.78z M212.14,77.97l-16.67-36.87h-10.38l-17.64,36.87h10.98l2.64-6.07
	h17.41l2.68,6.07H212.14z" />
	<polygon points="216.25,41.11 216.25,77.97 245.21,77.97 245.21,69.85 227.07,69.85 227.07,41.11 " />
	<path d="M1.45,91.74c29.58,16.33,93.15,27.29,140.08,27.32c0.04,0,0.08,0,0.13,0h0.08h0.08c0.04,0,0.08,0,0.13,0
	c46.93-0.03,110.49-10.99,140.08-27.32c2.47-1.36,1.39-3.33-0.38-3.33H1.83C0.06,88.41-1.03,90.37,1.45,91.74" />
</svg>
