<?xml version="1.0" encoding="UTF-8"?>
<svg id="a" data-name="Ebene 1" xmlns="http://www.w3.org/2000/svg" viewBox="0 0 1010 673">
  <rect width="1010" height="673" fill="#fff"/>
  <path d="M59.85,202.1c2.14,1.55,4.76,.87,7.19,1.26,12.82,2.82,18.65,7.77,20.21,20.79,1.75,13.5,1.94,27.2-.29,40.8-1.17,6.8-4.57,12.14-11.27,14.86,.1,.29,.1,.78,.29,.87,8.65,3.11,12.05,9.72,12.14,18.36,.1,13.8,0,27.59,0,41.68h-28.47v-35.85c0-9.81-1.94-11.46-12.44-10.01v46.05H19.24c-.97-.87-.58-1.85-.58-2.72V205.89c0-1.17,.19-2.53,.29-3.69,13.6-.1,27.3-.1,40.9-.1Zm-38.08,69.17c0,20.6,.1,41.29-.1,61.89,0,3.5,.87,4.66,4.37,4.47,4.66-.29,9.33-.29,13.99,0,3.4,.19,4.08-1.17,4.08-4.27-.19-11.85-.1-23.61-.1-35.46q0-7.97,8.06-7.09c8.65,.97,10.59,3.21,10.59,11.85,0,10.4,.1,20.79,0,31.19,0,2.43,.49,3.69,3.3,3.59,5.34-.19,10.49-.1,15.84,0,2.33,.1,3.3-.68,3.3-3.21-.1-11.95,.1-23.9-.19-35.85-.1-4.86-1.17-9.62-5.63-12.63-2.53-1.65-5.44-2.33-8.16-3.3-1.36-.49-3.5-.29-3.5-2.43s2.23-1.94,3.5-2.33c7.87-1.75,11.95-7,12.82-14.67,1.65-13.41,1.65-26.91-.19-40.32-1.17-8.74-6.7-14.09-15.35-15.84-3.21-.68-6.41-1.17-9.72-1.17-10.88-.19-21.76,0-32.64-.29-3.69-.1-4.66,1.17-4.57,4.66,.39,20.6,.29,40.9,.29,61.21Z" fill="#140b0c"/>
  <path d="M461.58,202.1c.49,1.55-.1,3.11-.49,4.57-7.38,28.76-14.67,57.61-21.96,86.27-.58,2.14-.78,4.18-.78,6.41v41.58h-25.94c-2.23,0-1.85-1.55-1.85-2.91,0-7.48-.39-14.96,.1-22.35,.78-13.99-1.46-27.3-5.15-40.71-6.32-23.32-12.05-46.73-17.97-70.15-.19-.97-.29-1.85-.39-2.72h28.85c-.1,.49-.39,.87-.29,1.26,2.72,16.13,5.34,32.35,8.06,48.48,.1,.78,.29,1.65,1.17,2.04,2.91-17.29,5.83-34.59,8.74-51.78,9.23,0,18.56,0,27.88,0Zm-69.66,3.59c-.49,2.14,0,3.5,.39,5.15,5.63,21.86,11.37,43.82,16.81,65.68,1.94,8.06,5.15,15.93,4.95,24.48-.19,10.88,0,21.76-.1,32.64,0,2.91,.68,4.18,3.89,3.98,4.27-.29,8.65-.29,13.02,0,3.89,.29,4.66-1.26,4.57-4.86-.19-11.37-.1-22.64-.1-34,0-2.14,.1-4.27,.68-6.41,5.05-19.53,10.01-39.06,14.96-58.58,2.33-9.23,4.66-18.46,7.09-28.27-6.12,0-11.76,.29-17.29-.1-3.69-.19-4.66,1.26-5.25,4.66-2.82,17.58-5.83,35.17-8.84,52.66-.19,1.26,.39,3.5-2.04,3.5-2.43-.1-1.75-2.04-2.04-3.5-3.11-17.97-6.12-36.04-9.23-54.12-.29-1.55-.19-3.21-2.43-3.21-6.61,.39-12.92,.29-19.04,.29Z" fill="#140b0c"/>
  <path d="M688.05,470.63c-7.29-3.21-9.23-6.51-8.74-14.48,0-.78,0-1.65,.39-2.23,1.17-1.65,11.08-1.07,12.24,.78,.19,.29-.19,.97,.58,1.17,.78-1.07,.39-2.23,.58-4.08-2.82,1.75-5.15,3.21-7.87,1.36-3.4-2.14-6.22-4.66-6.61-8.94-.97-12.14-1.17-24.19,.1-36.24,.87-7.38,5.44-10.2,12.53-8.26,2.23,.58,4.27-.1,6.41,0,3.11,.19,6.12,0,9.62,0v51.98c0,2.53-.29,4.95-.39,7.48-.19,5.73-3.98,8.84-8.55,11.37-3.5,.1-6.9,.1-10.3,.1Zm-4.57-13.12c.1,6.51,1.94,8.74,7.58,9.13,7.58,.49,11.66-1.94,11.76-8.06,.39-17.49,.19-35.07,.29-52.56,0-1.26-.1-2.53-1.94-2.33-1.36,.1-3.3-.58-3.4,1.94,0,.97,.49,2.33-1.17,2.53-1.65,.29-2.53-.58-3.3-1.94-1.36-2.62-3.79-3.59-6.61-3.11-3.21,.68-3.98,3.4-4.08,6.02-.68,11.27-.58,22.64,0,33.91,0,.78,.29,1.46,.58,2.23,1.65,3.98,5.83,4.86,8.94,1.75,.68-.68,.97-1.75,1.65-2.14,1.55-.78,3.5-1.26,3.5,1.55,0,3.11,.1,6.22-.1,9.33-.1,1.94-.78,3.79-2.91,4.37-1.85,.49-3.89,.68-5.15-1.17-1.46-2.04-3.4-1.65-5.63-1.46Z" fill="#140b0c"/>
  <path d="M433.6,202.1c-2.91,17.29-5.73,34.39-8.74,51.78-.97-.39-1.07-1.26-1.17-2.04-2.72-16.13-5.44-32.35-8.06-48.48-.1-.39,.19-.87,.29-1.26,5.93,0,11.76,0,17.68,0Z" fill="#fdfdfd"/>
  <path d="M737.89,254.07c11.37-8.26,22.25-7.29,30.02,2.72,3.69-5.54,8.74-8.36,15.54-8.16,8.45,.19,14.09,4.37,16.22,12.63,.78,3.01,1.07,6.02,1.07,9.23,0,22.05-.1,44.11,.1,66.16,0,3.69-1.07,4.76-4.66,4.57-5.25-.29-10.49-.29-15.84,0-3.5,.19-3.98-1.07-3.98-4.18,.1-19.43,.1-38.76,.1-58.29,0-1.36,0-2.82-.19-4.18-.39-1.75-1.55-2.43-3.4-2.53-1.85,0-3.11,.78-3.4,2.53-.29,1.46-.29,3.11-.29,4.66,0,19.33-.1,38.47,.1,57.81,0,3.21-.68,4.37-3.98,4.18-5.44-.29-10.88-.29-16.32,0-3.3,.19-4.18-.78-4.18-4.08,.19-19.43,.1-38.76,.1-58.29,0-1.36,0-2.82-.19-4.18-.19-1.85-1.46-2.53-3.3-2.53s-3.11,.49-3.4,2.43c-.19,1.55-.29,3.11-.29,4.66,0,19.33-.1,38.47,.1,57.81,0,3.21-.68,4.37-3.98,4.18-5.63-.29-11.17-.19-16.81,0-2.82,.1-3.69-.58-3.69-3.5,.1-28.08,.1-56.25,0-84.23,0-2.62,.68-3.5,3.4-3.5,5.73,.19,11.46,.19,17.29,0,2.91-.39,4.57,.1,3.89,4.08Zm-20.99,41.19c0,12.63,.1,25.16-.1,37.79,0,3.4,.58,4.95,4.27,4.47,3.11-.29,6.22-.29,9.33,0,3.59,.39,4.37-1.17,4.27-4.47-.19-18.17-.1-36.34-.1-54.5,0-1.36-.1-2.82,.19-4.18,.58-3.5,2.62-5.63,6.22-5.73,3.69-.29,6.12,1.55,7,5.44,.39,1.65,.39,3.4,.39,5.05,0,17.97,.1,36.04-.1,54.12,0,3.5,.97,4.76,4.37,4.47,3.11-.29,6.22-.29,9.33,0,3.21,.29,4.27-.78,4.27-4.08-.19-9.52-.1-18.95-.1-28.47s-.1-19.53,0-29.34c.1-4.57,2.33-7,6.32-7.09,4.57-.19,7,2.43,7,7.87,.1,18.95,.1,37.99,0,56.84,0,3.21,.68,4.57,4.08,4.27,3.3-.29,6.51-.29,9.81,0,3.5,.29,4.47-.87,4.47-4.37-.19-19.82-.1-39.83-.1-59.65,0-3.3-.29-6.51-.78-9.81-.97-6.51-4.76-10.69-10.69-11.85-6.22-1.17-11.95,1.17-15.16,6.61-2.62,4.47-3.3,4.47-6.12-.19-5.54-8.84-19.63-8.84-25.16-.1-1.07,1.65-1.07,5.25-3.89,4.27-2.53-.78-1.17-3.79-1.17-5.73,.1-3.01-1.17-3.69-3.79-3.5-3.3,.19-6.51,.29-9.81,0-3.59-.39-4.37,1.17-4.27,4.47,.1,12.24,0,24.77,0,37.4Z" fill="#140b0c"/>
  <path d="M194.21,336.85c.87,3.98-.87,4.37-3.5,4.27-5.44-.19-10.88-.19-16.32,0-2.53,.1-3.5-.39-3.5-3.3,.1-40.51,.1-81.12,0-121.54,0-2.53,.58-3.59,3.3-3.5,6.8,.19,13.6,.1,20.99,.1v41.39c4.76-4.37,9.52-5.73,14.77-5.73,9.52,.19,16.03,4.86,16.42,14.28,.87,21.08,1.55,42.36-.29,63.25-1.36,16.32-17.97,22.15-31.87,10.78Zm-19.82-59.85v52.17q0,8.84,8.65,8.84c2.43,0,5.34,.97,7.29-.58,1.94-1.46,.58-4.37,.87-6.61,.1-.78-.1-1.55,.97-1.85s1.85-.1,2.43,.87c.39,.68,.78,1.36,1.17,2.04,3.69,6.61,8.55,8.55,17,7,6.41-1.26,9.72-4.95,10.4-12.53,1.65-19.92,.49-40.03,.68-60.04,0-1.65-.29-3.5-.78-5.05-1.17-4.66-3.79-8.06-8.84-9.04-7.48-1.55-13.5,0-17.88,6.61-.78,1.07-1.36,2.23-2.91,1.85-1.75-.49-1.17-2.04-1.17-3.21-.1-9.52,0-18.95-.1-28.47,0-4.18,1.75-9.62-.78-12.14-2.72-2.82-8.16-.49-12.53-.97-3.69-.49-4.66,1.07-4.66,4.57,.29,18.95,.19,37.79,.19,56.54Z" fill="#140b0c"/>
  <path d="M497.14,337.53c-5.73,5.73-12.63,5.44-19.24,4.08-6.7-1.26-10.2-6.32-11.56-12.63-2.04-9.62-2.33-19.53-.49-29.15,2.82-14.38,14.18-19.92,27.69-13.99,.87,.39,1.65,.78,3.11,1.26,0-5.44,.1-10.4,0-15.45-.1-2.62-1.94-2.82-3.98-2.72-2.04,0-3.21,.87-3.3,3.11-.1,1.94,1.07,4.66-.68,5.73-1.55,1.07-4.18,.49-6.32,.49h-14.48c-.1-6.22-.68-12.24,.39-18.17,1.07-5.83,4.95-9.23,10.59-10.4,9.42-1.85,18.85-1.85,28.17,.19,7.77,1.65,11.66,7.29,12.82,14.86,.58,3.4,.87,6.8,.87,10.2,.1,20.69-.1,41.29,.1,61.98,0,3.59-1.07,4.47-4.37,4.27-5.15-.29-10.3-.29-15.35,0-2.23,0-3.69-.58-3.98-3.69Zm20.5-35.95h-.19c0-10.88,.19-21.76-.1-32.64-.29-9.91-4.86-15.25-13.12-16.52-6.9-1.07-13.89-1.26-20.89-.29-9.04,1.26-12.14,4.57-12.44,13.7q-.29,9.04,8.45,9.04c1.17,0,2.14-.1,3.3,0,2.82,.39,3.69-.68,3.79-3.59,.1-3.89,2.72-5.83,6.9-5.73,3.89,.19,6.22,2.14,6.32,5.93,.19,5.73,.1,11.46,0,17.29-.1,3.21-1.26,3.69-4.08,2.14-.97-.58-1.75-1.17-2.72-1.75-10.1-5.44-20.89-1.17-23.51,9.52-2.33,9.81-1.94,19.72,.1,29.53,1.26,6.02,4.86,10.1,11.17,10.78,6.32,.78,12.24,.1,15.64-6.32,.68-1.17,1.55-2.53,3.3-1.85,1.55,.58,1.07,2.14,.97,3.3-.29,2.91,.87,3.89,3.69,3.69,2.91-.19,5.83-.29,8.84,0,3.5,.29,4.57-.78,4.47-4.37-.1-10.69,.1-21.28,.1-31.87Z" fill="#140b0c"/>
  <path d="M571.56,319.36v19.24c0,1.85,.1,3.4-2.53,3.4-5.63,0-11.17,.78-16.81,.19-9.04-.97-14.38-6.02-15.35-15.16-1.17-9.91-.39-19.82-.49-29.73-.1-8.06,0-16.13,0-24-1.85-1.55-3.89-.29-5.83-1.36,0-6.41,.1-13.02,0-19.63,0-2.43,1.26-2.53,3.01-2.23,2.62,.39,3.11-.97,3.01-3.21-.1-5.63,0-11.17-.1-16.81-.1-2.14,.68-3.11,2.91-3.01,6.22,.1,12.44,.19,18.65,0,2.62-.1,3.11,1.17,3.01,3.4-.1,6.32,0,12.63,0,19.14,3.11,.87,5.93,.39,8.84,.39,2.23,0,3.5,.29,3.4,3.01-.19,6.32-.1,12.63-.1,19.14-3.11,.97-6.02,.49-8.94,.39-2.23,0-3.4,.49-3.4,3.11,.1,13.12,0,26.43,.1,39.64,0,4.66,.68,5.05,5.25,4.86,1.55-.58,3.3-.68,5.34-.78Zm-31.67-20.69v20.5c0,16.13,4.27,20.21,20.6,19.92q8.16-.19,8.16-8.45c0-1.55-.1-3.11,0-4.66,.1-1.85-.49-2.72-2.62-2.91-7.09-.58-8.36-2.04-8.36-9.33v-39.06c0-6.12-.68-5.54,5.44-5.54,6.7,0,6.8,0,6.7-6.51,0-2.91,1.17-6.51-.58-8.55-1.85-2.23-5.54-.78-8.36-.87-2.43-.1-3.3-.87-3.21-3.3,.1-5.63-.1-11.17,.1-16.81,.1-2.43-.78-3.3-3.21-3.21-3.69,.19-7.48,.29-11.17,0-3.11-.19-3.59,1.17-3.5,3.79,.19,5.44,.1,10.78,0,16.32,0,1.36,.19,3.21-1.85,3.01-3.98-.39-4.18,1.85-3.98,4.86,.19,2.82,.1,5.63,0,8.36,0,1.85,.49,3.11,2.53,2.82,3.3-.49,3.4,1.46,3.4,3.89-.19,8.74-.1,17.29-.1,25.75Z" fill="#140b0c"/>
  <path d="M642.97,340.93c-7.58,0-14.57-.1-21.57,.1-3.79,.1-2.82-2.53-2.82-4.47v-86.86c7.38,0,14.18,.1,20.99-.1,2.14-.1,2.62,1.17,2.91,3.11,4.76-4.47,10.4-4.57,16.22-3.89,5.73,.68,9.23,3.89,9.81,9.52,1.07,9.33,.29,18.65,.49,27.98,.1,2.04-1.17,2.23-2.72,2.23-5.15,0-10.3-.1-15.35,0-2.33,.1-2.91-.97-2.82-3.11,.1-3.5,0-7.19,0-10.69,0-1.55-.39-2.72-2.23-2.72-2.04-.1-2.82,.97-2.91,2.72-.1,1.17,0,2.53,0,3.69v56.84c0,1.65,0,3.3,0,5.64Zm-21.18-45.76c0,12.82,.1,25.84-.1,38.67,0,2.91,.87,3.89,3.69,3.69,3.11-.19,6.22-.29,9.33,0,3.79,.39,4.95-.87,4.95-4.86-.19-19.14-.1-38.18-.1-57.32,0-4.57,2.04-6.8,5.73-6.9,3.89-.1,5.73,2.04,6.12,6.51,.29,3.3-1.75,7.87,1.17,9.62,2.43,1.55,6.61,.39,10.1,.49h.49c1.75,.19,2.53-.58,2.53-2.33-.1-7.48,.1-14.96-.19-22.35-.1-2.72-.78-5.54-3.5-7.19-6.61-3.79-15.54-1.17-18.95,5.63-.68,1.26-.78,3.4-3.01,2.82s-1.07-2.62-1.26-3.89c-.1-.49-.1-.97,0-1.36,.29-2.43-.68-3.4-3.21-3.3-3.01,.19-5.93,.29-8.84,0-3.79-.39-5.05,.87-5.05,4.76,.29,12.44,.1,24.87,.1,37.31Z" fill="#140b0c"/>
  <path d="M903.54,341.03c-7.38,0-14.38-.19-21.28,.1-2.91,.1-1.75-2.14-2.62-3.5-5.34,5.73-12.14,5.34-18.65,4.18-6.22-1.07-10.01-5.54-11.56-11.46-2.82-10.69-3.01-21.57-.58-32.26,2.72-11.76,12.53-16.9,24.29-13.21,1.85,.58,3.69,1.36,6.02,2.33v-14.96c0-2.62-1.55-3.11-3.59-3.11s-3.3,.68-3.5,2.82c-.19,1.94,.97,4.57-.58,5.73-1.85,1.55-4.76,.49-7.19,.58-3.5,.1-7.19-.1-10.69,.1-2.33,.1-3.5-.58-3.3-3.11,.29-4.66-.19-9.33,.49-13.99,.97-6.02,4.37-10.1,10.2-11.37,9.81-2.14,19.72-2.23,29.53,.29,8.06,2.04,12.05,8.16,12.73,18.46,.29,4.66,.19,9.33,.19,13.99,.1,19.24,.1,38.47,.1,58.39Zm-3.11-37.6c0-3.11,.1-6.22,0-9.33-.19-9.33,.58-18.65-.78-27.88-1.17-8.45-5.44-12.63-13.7-13.89-7.09-1.07-14.18-1.07-21.37,0-9.13,1.36-11.66,5.73-10.78,19.53,.29,3.59-1.07,2.91,10.69,3.11,3.01,.1,4.47-.29,4.47-3.89s2.53-5.34,6.22-5.54c3.79-.1,6.8,1.65,7.09,5.25,.39,6.12,.29,12.44,.19,18.65,0,2.23-1.65,2.91-3.59,1.94-1.17-.58-2.04-1.36-3.11-2.04-10.4-5.83-21.47-1.17-24,10.4-2.14,9.72-1.75,19.53,.49,29.05,1.17,5.44,4.57,9.33,10.3,10.2,6.61,.97,12.82,.58,16.61-6.22,.78-1.26,1.65-2.53,3.3-1.85,1.46,.58,1.17,2.04,1.07,3.3-.29,2.91,.97,3.79,3.69,3.69,3.11-.19,6.22-.19,9.33,0,3.01,.19,3.98-.87,3.98-3.89-.19-10.4-.1-20.4-.1-30.6Z" fill="#140b0c"/>
  <path d="M585.45,393.59c-1.46,3.89-.87,7.09-.87,10.3,0,1.85,1.46,2.23,2.91,2.53,11.37,2.82,15.06,10.59,14.48,21.67-.29,5.44,.1,10.88-1.36,16.13-1.46,5.34-4.95,8.45-10.49,8.94-.78,.1-1.55,.19-2.33,.29-12.73,.97-17.68-3.5-17.97-16.42-.1-3.5,0-7.09,0-10.59,2.33-.78,4.47-.39,6.61-.39,2.43,0,4.95-.39,7.38,.29,.97,3.69-.87,7.77,1.65,11.66,2.43-3.01,.78-6.12,1.26-9.04,.87-4.27-2.23-5.05-5.25-6.12-9.23-3.5-11.46-6.61-11.66-16.71-.1-6.12-.68-12.44,.87-18.56,1.17-4.95,3.98-7.97,9.13-8.55,1.36-.19,2.82-.39,4.18-.49,12.34-.49,16.81,3.69,16.9,15.93,.1,10.2,.1,10.01-10.2,10.1-3.01,0-4.18-.68-3.89-3.79-.1-2.23,.39-4.47-1.36-7.19Zm-11.95,36.53v5.44c.19,12.05,3.01,14.57,14.86,13.7,5.15-.39,7.19-1.94,8.45-7,1.46-5.73,.68-11.37,.97-17.2,.29-7.29-2.53-11.95-9.81-14.28-7.48-2.43-7.68-3.3-7.58-11.17,0-1.17,.1-2.53,.1-3.69,.1-3.4,1.26-5.63,5.25-5.63,3.69,0,4.76,2.23,4.95,5.44,.1,1.17,0,2.14,.29,3.3,.39,2.14,2.14,1.17,3.4,1.36,1.26,.19,2.43,0,2.43-1.75,.1-11.08,.58-17.29-14.67-15.84-.29,0-.68,.1-.97,.1-4.08,.1-6.12,2.23-6.9,6.12-1.17,6.9-1.07,13.89-.39,20.89,.39,4.18,2.53,6.9,6.41,8.16,11.08,3.59,10.2,3.59,10.2,16.42,0,.97-.1,1.85-.19,2.82-.39,3.3-2.62,4.47-5.54,4.27-3.3-.19-4.66-2.14-4.86-6.61q-.19-5.54-6.41-4.86Z" fill="#140b0c"/>
  <path d="M304.87,272.15c0-6.9-.1-13.5,0-20.21,.1-4.27,3.69-1.17,5.73-2.91v-21.86h24.39c0,6.41,.19,12.63-.1,19.04-.1,2.82,.68,3.69,3.5,3.59,8.65,0,8.65,.1,8.65,9.04,0,3.5-.1,6.8,0,10.3,.1,2.23-.39,3.4-3.01,3.3-2.91-.1-6.61-1.26-8.45,.58-2.04,2.04-.68,5.83-.68,8.94-.1,10.3-.1,20.5,0,30.8,0,7.29,.1,7.38,7.29,7,.97-.1,1.85-.1,2.82-.1,.1,0,.29,.1,.87,.39v19.63c0,1.55-.68,2.23-2.23,2.23-5.83,.1-11.76,.97-17.58,.19-8.16-.97-13.02-5.63-14.67-13.8-.78-3.69-.68-7.38-.68-11.08v-39.54q0-5.25-5.83-5.54Zm9.33,26.43h0c.1,8.84-.1,17.68,.19,26.52,.29,8.06,3.89,12.24,11.95,13.6,4.47,.78,8.94,.49,13.41,0,1.75-.19,2.91-.78,2.82-2.91-.1-3.5-.1-6.8,0-10.3,0-1.65-.58-2.33-2.43-2.53-7.29-.78-8.06-1.75-8.06-8.94-.1-13.31,0-26.62,0-40.03q0-4.95,5.05-4.95,7.19,0,7.19-7c0-8.65,0-8.84-8.45-8.84-2.82,0-3.79-.87-3.69-3.69,.19-5.44-.1-10.88,.1-16.32,.1-2.43-.78-3.3-3.21-3.21-3.5,.19-6.8,.29-10.3,0-3.4-.29-4.76,.68-4.47,4.27,.29,5.15,0,10.3,.1,15.35,0,2.14-.49,3.69-3.11,3.5-2.43-.29-3.3,.78-3.21,3.21,.19,3.3,.1,6.51,0,9.81-.1,2.04,.49,3.4,2.82,3.01,3.21-.49,3.5,1.26,3.5,3.89-.29,8.55-.19,17.1-.19,25.55Z" fill="#140b0c"/>
  <path d="M966.59,288.37h-18.65c-1.85,0-1.85-1.17-1.85-2.53v-10.3c0-1.94,.19-3.79-2.72-3.69-2.82,.1-2.72,2.04-2.72,3.89v57.32q0,7.77-7.77,7.77c-4.37,0-8.65-.1-13.02,0-2.43,.1-3.5-.39-3.5-3.3,.1-28.27,.1-56.45,0-84.82,0-2.23,.29-3.4,3.01-3.3,5.83,.19,11.85,.19,17.68,0,2.14-.1,3.21,.58,2.82,3.5,4.76-4.57,9.91-4.95,15.16-4.57,7.09,.49,11.17,3.89,11.46,10.98,.49,9.72,.1,19.14,.1,29.05Zm-46.83,6.8c0,12.73,.1,25.45-.1,38.18,0,3.3,.97,4.37,4.18,4.18,3.11-.29,6.22-.29,9.33,0,3.5,.39,4.47-.97,4.37-4.37-.19-18.46-.1-37.02-.1-55.48,0-1.65-.1-3.5,.29-5.15,.78-3.11,3.3-4.08,6.02-3.89,2.82,.19,5.25,1.17,5.25,4.76,0,3.01,.1,5.83,0,8.84,0,1.75,.39,3.01,2.53,2.91,3.3-.1,6.51-.1,9.81,0,1.46,0,2.33-.58,2.23-2.14-.29-8.16,.78-16.52-.68-24.58-.39-2.43-1.46-4.37-3.79-5.44-7.09-3.3-14.96-.68-18.46,6.22-.39,.68-.58,1.55-1.17,2.04-1.26,.97-2.62,1.26-2.91-1.07-.1-1.17-.19-2.14,0-3.3,.39-2.82-.68-3.98-3.59-3.69-3.11,.19-6.22,.29-9.33,0-3.5-.29-4.08,1.17-4.08,4.27,.29,12.53,.19,25.07,.19,37.7Z" fill="#140b0c"/>
  <path d="M813.67,341.03v-4.66c0-39.64,0-79.28-.1-118.82,0-3.5,.78-4.86,4.47-4.57,5.15,.39,10.3,.29,15.35,0,3.5-.19,4.66,.78,4.66,4.57-.19,31.19-.1,62.47-.1,93.66,0,8.84-.1,17.68,.1,26.52,0,2.62-.78,3.5-3.4,3.4-6.8-.19-13.6-.1-20.99-.1Zm3.01-64.22c0,18.75,.1,37.6-.1,56.35,0,3.69,1.17,4.95,4.76,4.57,2.82-.29,5.63-.29,8.36,0,3.89,.39,4.95-1.17,4.95-4.95-.19-23.8-.1-47.41-.1-71.21,0-13.6-.1-27.3,.1-40.9,0-3.4-.58-4.86-4.27-4.47-3.11,.29-6.22,.29-9.33,0-3.5-.39-4.37,.87-4.37,4.37,.1,18.65,0,37.4,0,56.25Z" fill="#140b0c"/>
  <path d="M159.63,295.27c-.39,9.42,.58,18.75-.97,28.08-1.65,10.49-7.09,16.42-17.58,18.27-7.09,1.17-14.28,1.17-21.37,.1-10.59-1.75-16.32-7.77-17.88-18.46-.58-3.69-.97-7.38-.87-11.08,.39-14.48-.87-28.85,.78-43.23,1.26-11.56,7-17.58,18.36-19.53,6.61-1.17,13.31-1.17,19.92-.1,11.56,1.85,16.9,7.68,18.65,19.33,1.55,8.74,.58,17.78,.97,26.62Zm-3.69,.49h0c-.1-8.16,.29-16.52-.1-24.68-.49-10.4-5.54-16.81-13.99-18.36-5.34-1.07-10.78-1.36-16.22-.97-14.09,1.26-20.01,6.02-20.79,18.46-1.07,16.81-.97,33.52,0,50.33,.68,11.46,5.63,16.13,17,18.07,5.25,.97,10.49,.97,15.74,.19,12.82-1.65,17.88-7.19,18.36-20.21,.29-7.58,0-15.25,0-22.83Z" fill="#140b0c"/>
  <path d="M256.59,436.14h11.27c0,5.05-.1,9.62,0,14.28,0,1.85-.78,2.43-2.53,2.33-7.97-.1-15.84-.1-23.8,0-2.62,0-2.53-1.46-2.62-3.3-.49-7.19,.78-14.18,2.82-21.08,3.3-10.59,6.02-21.37,9.23-32.35-1.07-.1-1.75-.29-2.53-.29q-8.06-.19-8.06-8.45v-7.77h27.3c-.29,6.12,.68,12.44-1.17,18.65-3.4,11.27-6.41,22.64-9.62,33.91-.1,1.26-.58,2.43-.29,4.08Zm-5.63,3.59c.19-.78,.19-1.36,.39-1.94,3.98-14.48,8.16-28.76,12.14-43.33,2.62-9.62,1.17-11.27-8.26-11.27h-3.3q-7.77,0-7.38,7.58c0,.29,.39,.49,.78,1.17h11.08c-.49,1.85-.97,3.4-1.26,4.86-3.59,13.12-7.29,26.23-10.98,39.25-1.07,3.5-.58,7.09-.78,10.59-.1,1.65,.87,2.04,2.23,2.04,5.34,0,10.49-.1,15.84,0,3.98,.1,2.33-2.82,2.53-4.57,.19-1.85,.78-4.08-2.72-3.98-3.4,0-6.8,.29-10.3-.39Z" fill="#140b0c"/>
  <path d="M474.7,399.9h13.8c1.07,4.08,.87,8.06,1.65,12.14,.49-3.98,.87-7.97,1.26-12.14h13.89c-.68,5.93-1.17,11.95-1.85,17.78-1.07,10.4-2.14,20.69-3.11,31.09-.29,3.11-1.36,4.27-4.57,3.98-3.98-.29-8.06-.19-12.14,0-2.62,.1-3.79-.49-3.98-3.4-.68-8.16-1.65-16.32-2.53-24.48-.68-8.16-1.55-16.32-2.43-24.97Zm4.95,4.18c-.68,1.46-.19,3.01,0,4.47,1.17,10.4,2.33,20.69,3.3,31.09,.87,9.13,.78,8.94,9.72,9.04,3.5,.1,4.08-1.36,4.37-4.27,.39-5.63,1.17-11.08,1.65-16.71,.78-7.87,1.46-15.64,2.33-23.51q-5.63-.87-6.02,3.79c-.29,2.62-.49,5.25-.68,7.97-.68,8.45-1.26,17.1-1.85,25.55-.1,1.36-.1,2.82-2.14,2.91-2.04,0-2.14-1.36-2.23-2.82-.1-.97-.1-1.85-.19-2.82-.78-10.1-1.36-20.11-2.14-30.22q-.68-5.15-6.12-4.47Z" fill="#140b0c"/>
  <path d="M296.42,295.75c-.29,9.13,.97,18.27-.68,27.4-2.04,11.76-8.36,17.68-20.21,18.85-5.34,.49-10.49,.49-15.84,0-12.63-1.07-19.63-7.87-21.08-20.6-.97-8.36-.58-16.81-.58-25.16,0-9.04-.49-17.97,.58-27.01,1.36-11.95,7.19-18.36,18.95-20.11,6.9-1.07,13.99-1.07,20.89,.29,10.2,1.94,15.35,7.38,17.2,17.49,.29,1.65,.78,3.4,.78,5.05,.1,7.97,0,15.84,0,23.8Zm-2.82,.58c-.1-9.62,.19-18.07-.68-26.62-1.07-10.49-6.12-15.93-16.61-17.39-6.12-.97-12.34-.87-18.46,.1-8.84,1.26-14.18,5.63-15.16,14.38-2.23,18.36-1.75,36.82-.39,55.18,.87,11.17,5.63,14.77,16.71,16.61,5.44,.97,10.78,.97,16.22,.1,12.53-1.85,16.9-7,17.88-19.63,.58-7.97,.29-15.93,.49-22.73Z" fill="#140b0c"/>
  <path d="M340.92,411.27c1.36-2.91,1.26-5.73,1.36-8.65,0-2.14,.78-3.11,3.01-3.01,3.59,.19,7.38,0,11.46,0-1.17,12.14-2.43,23.9-3.59,35.56-.49,4.76-1.17,9.62-1.36,14.38-.19,2.33-.97,3.3-3.4,3.21-4.66-.19-9.33-.1-13.99,0-2.14,.1-3.01-.58-3.21-2.82-1.55-16.52-3.4-33.03-5.05-49.84,4.18-.78,8.36-.19,12.53-.39,1.85-.1,1.75,1.26,1.85,2.62,0,3.01,.19,6.02,.39,8.94Zm11.37-7.09c-5.93-.87-5.83-.87-6.22,4.57-.78,10.59-1.55,21.37-2.53,31.96-.1,1.46,.78,3.69-2.23,3.59-2.62-.1-1.75-2.14-1.94-3.5-.97-10.78-1.75-21.67-2.62-32.45-.39-5.44-.39-5.54-6.12-4.08,1.17,11.66,2.33,23.41,3.5,35.17,1.07,9.72,1.55,10.2,11.37,9.13h.49c1.36,0,1.75-.68,1.94-1.94,1.36-14.28,2.91-28.37,4.37-42.46Z" fill="#140b0c"/>
  <path d="M756.25,418.75c5.34,1.94,7.09,5.05,7.58,9.33,.68,5.34,.68,10.49-.39,15.74-1.17,6.02-4.27,8.74-10.4,9.42-1.17,.1-2.14,.19-3.3,.19-10.98-.1-16.61-7.87-13.6-18.36,.29-1.17,.87-1.46,1.94-1.46,1.46,0,3.11,0,4.86-.29-5.34-2.91-6.9-7.58-6.9-13.02s-.49-10.49,1.65-15.54c1.17-2.62,3.3-4.08,5.93-4.76,1.46-.39,3.11-.58,4.57-.68,10.98-.97,15.06,2.82,15.16,13.89v5.25c-2.14-.1-4.08,0-7.09,.29Zm-15.84,19.24c-.29,9.81,1.36,11.56,10.78,11.27h.49c5.34-.19,7.38-1.85,8.06-7.09,.39-3.11,.58-6.12,.39-9.33-.29-8.65-.39-8.65-8.65-11.08-4.95-1.36-6.9-5.73-4.95-10.49,.68-1.65,1.85-2.43,3.5-2.53,1.65-.1,3.11,.58,3.79,2.04,.39,.68,.49,1.46,.58,2.23,.29,1.46,1.36,1.36,2.53,1.36,.97,0,1.85,.19,2.33-.97,1.36-2.91-1.07-8.94-3.89-9.91-9.81-3.21-15.06,.49-15.25,10.59,0,1.17-.1,2.14-.1,3.3,0,9.23,.58,9.91,9.33,12.63,4.37,1.36,6.51,7.58,3.98,11.27-1.85,2.62-6.51,2.62-7.19-.39-.78-3.59-2.72-3.59-5.73-2.91Zm9.81-1.65s-1.17,1.07,.1,1.94c-.1-.97-.1-1.94-.1-1.94Z" fill="#140b0c"/>
  <path d="M676.78,249.8c7.19,0,14.09,.1,20.89-.1,2.91-.1,3.3,1.17,3.3,3.59-.1,7.77,0,15.54,0,23.32,0,20.01-.1,40.12,.1,60.14,0,3.4-.68,4.57-4.27,4.37-6.51-.39-13.02-.1-19.82-.1-.19-30.41-.19-60.62-.19-91.23Zm2.91,45.47c0,12.82,.1,25.75-.1,38.57,0,2.72,.68,3.98,3.59,3.69,3.4-.19,6.8-.29,10.3,0s4.18-1.17,4.08-4.27c-.19-7.97-.1-15.84-.1-23.71,0-17.49-.1-35.07,.1-52.56,0-3.01-.78-4.18-3.89-3.98-3.3,.29-6.51,.29-9.81,0-3.69-.39-4.27,1.17-4.27,4.47,.19,12.73,.1,25.26,.1,37.79Z" fill="#140b0c"/>
  <path d="M581.66,341.03v-91.23c7.09,0,13.89,.19,20.69-.1,3.11-.1,3.5,1.17,3.5,3.79-.1,18.17-.1,36.24-.1,54.41,0,9.91-.1,19.82,.1,29.73,0,2.62-.68,3.5-3.4,3.5-6.7-.19-13.6-.1-20.79-.1Zm2.91-46.15c0,13.02,.1,26.04-.1,39.06,0,2.82,.78,3.89,3.59,3.69,3.11-.19,6.22-.29,9.33,0,3.69,.39,5.15-.78,5.05-4.76-.29-9.33-.1-18.65-.1-27.88,0-15.93-.1-31.96,.1-47.9,0-3.11-.87-4.18-3.89-3.89-3.11,.19-6.22,.29-9.33,0-3.5-.29-4.86,.78-4.76,4.57,.29,12.34,.1,24.68,.1,37.11Z" fill="#140b0c"/>
  <path d="M405.14,433.03c-5.54-2.53-7.09-7.09-7.09-12.63,0-4.66-.49-9.33,.87-13.89,1.17-3.98,3.59-6.41,7.77-7,1.17-.19,2.43-.49,3.69-.58,12.63-.68,15.45,4.47,14.96,13.6-.1,1.85,.39,3.69-.49,5.63h-6.22c10.2,5.73,7.77,14.86,7.09,22.83-.97,10.98-13.7,16.42-23.12,10.3-2.72-1.75-3.69-4.47-4.27-7.48-.19-1.07-.19-2.14-.19-3.3q-.1-6.8,7-7.48Zm17.1,1.94c0-10.3-.1-10.4-9.42-13.41-4.08-1.26-5.05-2.91-4.66-7.87,.19-2.23,.39-4.47,3.3-4.86,2.82-.49,4.57,.87,4.95,3.5,.39,2.23,1.75,2.14,3.4,2.04,2.33-.1,1.55-1.85,1.65-3.11,.19-5.93-1.46-7.97-7.48-8.16-1.94-.1-3.98,.1-6.02,.29-2.82,.19-4.47,1.75-5.15,4.57-1.17,4.27-.97,8.65-.68,12.92,.29,5.73,1.65,7.09,7.29,8.55,1.07,.29,2.14,.49,3.21,.97,3.5,1.36,5.15,8.84,2.43,11.56-2.53,2.53-6.02,1.46-7.29-2.62-.68-2.04-1.65-1.85-3.11-1.75-1.07,0-2.14-.29-2.53,1.26-1.36,5.05,1.85,9.81,7.19,10.2,10.1,.78,12.44-1.26,12.92-11.46,0-.78,0-1.65,0-2.62Zm-10.49,3.69c.49-1.46,.39-2.53,0-3.5-.39,1.07-.58,2.04,0,3.5Z" fill="#140b0c"/>
  <path d="M638.6,431.58c-3.69,0-7.48,.29-11.17-.1-3.79-.39-5.05,1.07-4.47,4.66,.19,1.07-.19,2.14,.78,2.91,.39-.29,.87-.49,.78-.58-.58-4.47,1.65-5.54,5.73-5.05,2.72,.29,5.54,.1,8.36,.1,.68,3.98,.39,7.77-.29,11.37-.29,1.65-.97,3.4-2.23,4.57-5.63,5.44-12.44,4.37-18.95,3.21-5.44-1.07-7.97-5.63-8.26-10.59-.87-10.49-.97-21.18,0-31.67,.68-7,4.57-10.4,11.56-11.17,3.5-.49,6.9-.29,10.2,.97,4.47,1.55,7.58,4.76,7.87,9.52,.39,7,.1,14.28,.1,21.86Zm-19.53-3.98h15.74c0-5.73,.1-11.17-.1-16.52-.1-2.72-1.26-5.05-3.79-6.51-8.74-5.25-18.07-.29-18.36,9.81-.19,7.68-.1,15.16,0,22.83,.1,9.91,2.82,12.44,12.63,12.14,8.16-.19,10.69-3.4,9.13-11.46-2.72-.1-5.44-1.07-6.22,3.3-.49,2.33-3.3,2.62-5.54,2.14s-3.5-1.94-3.5-4.27v-11.46Z" fill="#140b0c"/>
  <path d="M540.28,431.67h-15.64c-.49,2.62-.78,4.95,.19,7.38,.49-.19,1.07-.39,1.07-.49-.58-4.86,2.14-5.34,6.12-5.15,9.04,.29,9.04,.1,8.06,9.13-.68,6.51-3.79,9.72-10.4,10.4-.49,.1-.97,.1-1.36,.19-13.02,1.17-18.17-3.3-18.36-16.32-.1-7.77-.1-15.45,.1-23.32,.1-5.44,1.17-10.78,6.9-13.12,6.32-2.62,12.73-2.43,18.65,1.46,2.72,1.75,3.98,4.66,4.37,7.97,.58,7.09,.1,14.18,.29,21.86Zm-4.18-4.08c0-5.73,.1-10.78,0-15.93-.1-3.3-1.17-6.41-4.47-7.48-10.1-3.11-17.68-1.65-17.68,10.3,0,7.58-.1,15.16,0,22.73,.19,9.52,2.91,12.14,12.34,11.95,8.26-.19,10.49-2.72,9.62-11.56-2.04,.58-4.95-1.65-5.83,2.23-.78,3.11-3.11,3.59-5.73,3.3-2.82-.39-3.79-2.33-3.79-4.95s.19-5.34-.1-7.97c-.19-2.43,.97-2.82,3.01-2.82,3.98,.29,8.06,.19,12.63,.19Z" fill="#140b0c"/>
  <path d="M378.42,433.52h11.08c1.55,0,2.23,.58,2.23,2.14,0,3.5-.1,7.19-1.17,10.59-.29,.87-.78,1.75-1.26,2.43-4.95,5.93-11.66,4.86-18.07,4.08-5.05-.58-8.36-3.89-9.04-8.65-1.75-12.05-1.85-24.19,0-36.14,.78-4.76,4.18-7.87,9.23-8.55,3.5-.58,6.8-.68,10.2,.1,5.44,1.26,8.74,4.37,9.62,10.01,1.17,7.29,.29,14.48,.58,22.05h-15.74v7.58c2.72-1.17,.49-3.89,2.33-5.63Zm9.23,4.27c-3.21,0-5.93-1.36-6.8,3.01-.49,2.43-3.11,2.82-5.44,2.53s-3.59-1.65-3.69-4.08c-.1-3.01,0-5.83-.19-8.84-.19-2.43,1.07-2.82,3.11-2.72,3.5,.1,6.8,0,10.3,0,1.36,0,2.91,.19,2.82-1.94-.19-5.44,.39-10.88-.68-16.22-.68-3.3-2.82-5.15-5.83-5.83-2.43-.58-4.86-.78-7.38-.39-5.44,.68-7.68,2.53-8.06,7.77-.97,10.3-.87,20.4,0,30.7,.19,2.53,1.07,5.15,3.5,6.22,4.86,2.23,10.1,2.23,14.96,.19,3.79-1.94,2.91-6.32,3.4-10.4Z" fill="#140b0c"/>
  <path d="M998.65,341.03c-7.68,0-14.77-.1-21.86,0-3.59,.1-2.43-2.53-2.43-4.18-.1-24.48,0-49.06,0-73.64,0-3.5,.1-6.8,0-10.3-.1-2.33,.49-3.4,3.11-3.3,5.83,.19,11.85,.19,17.68,0,2.91-.1,3.59,.78,3.59,3.59-.19,12.34-.1,24.48-.1,36.82,0,16.9,0,33.62,0,51.01Zm-3.11-45.57c0-12.73-.1-25.45,.1-38.18,0-2.82-.49-4.37-3.69-4.08-4.47,.49-10.2-1.75-13.02,.87-3.01,2.72-.68,8.45-1.07,12.92-.1,.78,0,1.55,0,2.33v63.34q0,4.95,5.15,5.05c3.01,0,5.83-.19,8.84,.1,3.3,.29,3.89-1.17,3.79-3.98-.1-12.92-.1-25.65-.1-38.38Z" fill="#140b0c"/>
  <path d="M672.89,422.83c-3.21,.87-6.02,.49-9.04,.39-2.91-.1-3.69,.78-3.69,3.59,.19,8.36,.1,16.71,.1,25.07-.68,.29-1.17,.58-1.46,.49-3.98-.1-9.13,1.65-11.76-.68-2.72-2.33-.87-7.58-.87-11.56-.1-12.44,0-24.87-.1-37.31,0-2.53,.58-3.5,3.3-3.5,4.95,.1,9.91,.29,14.86-.58,4.66-.78,7.68,1.75,8.36,6.61,.78,5.93,.19,11.76,.29,17.49Zm-16.52,25.26v-33.91c0-2.33,1.36-3.79,3.69-3.98,2.53-.19,4.08,1.26,4.27,3.79,.19,1.65,0,3.4,0,4.86,3.11,.97,4.57,.58,4.27-2.72-.19-3.11-.1-6.22-.1-9.33,0-1.85-.49-3.5-2.72-3.69-2.04-.29-4.08-.29-5.15,2.04-.39,.87-.58,1.75-1.07,2.53-.58,.87-1.55,.87-2.53,.78-1.07-.1-1.17-.87-1.17-1.65,.1-5.15-3.21-2.82-5.83-3.01v39.06q.1,5.73,6.31,5.25Z" fill="#140b0c"/>
  <path d="M323.53,423.32c-2.91,0-5.44,.29-7.87-.1-3.98-.49-4.95,1.17-4.76,4.95,.29,7,0,13.99,.1,20.99,.1,2.53-.58,3.5-3.4,3.5-10.78,.19-10.78,.29-10.78-10.4,0-12.82,.1-25.75-.1-38.67,0-2.91,.49-4.08,3.69-3.98,4.76,.19,9.52,.19,14.38-.58,5.05-.87,8.16,2.04,8.55,7.48,.29,5.34,.19,10.88,.19,16.81Zm-22.73-19.43v39.35q0,5.34,6.02,4.95v-33.23c0-2.72,1.26-4.57,4.08-4.66,2.82,0,3.98,1.75,4.08,4.57,.1,1.46-.58,3.11,.49,4.37,2.62,.58,4.18,.1,3.89-3.11-.29-3.3-.19-6.51-.29-9.81-.1-1.65-.78-3.01-2.72-3.21-1.85-.29-3.69-.29-4.95,1.65-.49,.78-.78,1.65-1.17,2.53-.39,1.17-1.26,1.17-2.23,1.17-.87,0-1.65-.19-1.55-1.17,.78-4.66-2.23-3.79-5.64-3.4Z" fill="#140b0c"/>
  <path d="M433.21,399.71c4.18,0,7.97,.1,11.66,0,2.14-.1,2.53,.97,2.53,2.82-.1,15.64-.1,31.28,0,47.12,0,2.33-.58,3.21-3.11,3.3-11.08,.39-11.08,.49-11.08-10.59v-42.65Zm4.08,4.18v41.1c0,2.23,0,3.69,3.11,3.69s3.01-1.55,3.01-3.69c-.1-12.14,0-24.19,0-36.24q-.1-5.15-6.12-4.86Z" fill="#140b0c"/>
  <path d="M785.01,452.66c-3.69,0-7.29-.1-10.69,0-2.53,.1-3.21-.87-3.21-3.21,.1-7.29,0-14.67,0-21.86,0-8.06,.19-16.13-.1-24.19-.1-3.21,1.07-3.98,3.89-3.69,3.3,.29,6.51,.1,10.01,.1,.1,17.58,.1,35.07,.1,52.85Zm-3.98-4.27v-44.79c-1.94,.29-3.59-.29-5.15,.39-.78,1.65-.49,3.3-.49,4.76v34.88q-.1,4.95,5.63,4.76Z" fill="#140b0c"/>
  <path d="M715.54,399.9h13.02c.97,1.26,.49,2.72,.49,4.08,0,14.96,0,30.02,.1,44.98,0,2.72-.49,3.69-3.5,3.69-10.59,0-10.59,.19-10.59-10.49,0-13.99,0-27.88,.1-41.87-.1,.1,.1-.1,.39-.39Zm9.62,48.29c0-13.99-.1-27.79,.1-41.58,0-2.62-1.07-3.11-3.3-3.01-2.04,0-3.11,.29-3.11,2.82,.1,13.89,.1,27.79,.1,41.68,2.14,.68,3.89,.49,6.22,.1Z" fill="#140b0c"/>
  <path d="M275.34,399.81h13.02c.68,.49,.78,1.17,.78,1.65,0,15.84-.1,31.67,.1,47.51,0,2.82-.58,3.69-3.5,3.69-10.49,0-10.49,.19-10.49-10.2v-41.48c-.1-.1,0-.39,.1-1.17Zm9.81,48.09v-39.35q0-5.25-5.93-4.57v44.3c2.14,.29,3.89,.58,5.93-.39Z" fill="#140b0c"/>
  <path d="M433.41,379.21c3.89,0,7.48,.1,10.98,0,2.04-.1,3.21,.39,3.01,2.82-.19,3.3-.1,6.51,0,9.81,.1,2.04-.68,2.72-2.72,2.72-3.69-.1-7.38,0-11.27,0v-15.35Zm9.91,11.08c-.49-2.62,1.07-5.25-1.07-6.9-.97-.78-3.59-.68-4.27,.1-1.55,1.94-.87,4.47-.58,6.8h5.93Z" fill="#140b0c"/>
  <path d="M785.11,394.27c-1.17,.1-1.65,.1-2.33,.1q-12.24,.19-11.66-12.24c.1-2.14,.58-3.11,2.82-3.01,3.59,.19,7.38,0,11.17,0v15.16Zm-3.69-3.89c-.49-2.62,.97-5.25-.97-6.9-.87-.78-3.5-.68-4.27,.1-1.75,1.85-.87,4.37-.68,6.8h5.93Z" fill="#140b0c"/>
  <path d="M275.14,379.4h13.8v14.96c-3.89,0-7.97-.1-11.85,0-1.75,0-1.94-.87-1.94-2.33v-12.63Zm4.08,10.69c2.14-.78,6.12,2.82,5.93-2.62,0-2.14,.78-4.66-3.21-4.47-6.02,.39-1.55,4.76-2.72,7.09Z" fill="#140b0c"/>
  <path d="M715.16,394.07v-14.67h13.6v14.67h-13.6Zm4.08-3.79c1.94-1.17,5.63,2.82,5.83-2.14,.1-2.04,1.46-5.15-3.01-4.95-5.83,.1-1.94,4.37-2.82,7.09Z" fill="#140b0c"/>
  <path d="M21.76,271.27c0-20.31,.1-40.61-.1-61.01,0-3.59,.87-4.76,4.57-4.66,10.78,.29,21.76,.1,32.64,.29,3.3,.1,6.51,.58,9.72,1.17,8.65,1.75,14.18,7.09,15.35,15.84,1.85,13.41,1.85,26.91,.19,40.32-.97,7.68-5.05,12.82-12.82,14.67-1.26,.29-3.5,0-3.5,2.33,0,2.14,2.04,1.94,3.5,2.43,2.82,1.07,5.73,1.55,8.16,3.3,4.47,3.11,5.54,7.97,5.63,12.63,.29,11.95,.1,23.9,.19,35.85,0,2.53-.97,3.21-3.3,3.21-5.34-.1-10.49-.19-15.84,0-2.82,.1-3.3-1.17-3.3-3.59,.1-10.4,.1-20.79,0-31.19,0-8.65-1.94-10.88-10.59-11.85q-8.06-.87-8.06,7.09c0,11.85-.1,23.61,.1,35.46,0,3.21-.78,4.47-4.08,4.27-4.66-.29-9.33-.29-13.99,0-3.5,.29-4.37-1.07-4.37-4.47,0-20.79-.1-41.48-.1-62.08Zm22.25-23.03c0,6.32,.19,12.63-.1,19.14-.1,3.21,1.07,4.18,3.98,3.79,.97-.1,1.85,0,2.82,0,8.74-.1,11.85-3.11,11.95-11.76,.1-6.32,.1-12.63,.1-19.14,0-13.02-2.62-15.45-15.64-14.86-2.53,.1-3.21,.97-3.11,3.3,.1,6.51,0,13.02,0,19.53Z" fill="#db0023"/>
  <path d="M391.92,205.69h18.85c2.23,0,2.14,1.55,2.43,3.21,3.11,17.97,6.12,36.04,9.23,54.12,.29,1.36-.39,3.5,2.04,3.5,2.53,.1,1.85-2.14,2.04-3.5,3.11-17.49,6.02-35.17,8.84-52.66,.58-3.4,1.46-4.95,5.25-4.66,5.54,.39,11.08,.1,17.29,.1-2.43,9.72-4.76,19.04-7.09,28.27-4.95,19.53-9.91,39.06-14.96,58.58-.58,2.14-.68,4.27-.68,6.41,0,11.37-.1,22.64,.1,34,.1,3.5-.68,5.15-4.57,4.86-4.27-.39-8.65-.29-13.02,0-3.21,.19-3.89-1.17-3.89-3.98,.1-10.88-.1-21.76,.1-32.64,.1-8.55-3.01-16.42-4.95-24.48-5.44-21.96-11.08-43.82-16.81-65.68-.19-1.85-.78-3.3-.19-5.44Z" fill="#db0023"/>
  <path d="M683.48,457.52c2.33-.29,4.18-.68,5.63,1.46,1.17,1.75,3.3,1.65,5.15,1.17,2.14-.58,2.82-2.43,2.91-4.37,.19-3.11,.1-6.22,.1-9.33s-1.85-2.43-3.5-1.55c-.78,.39-1.07,1.46-1.65,2.14-3.11,3.11-7.29,2.23-8.94-1.75-.29-.78-.58-1.46-.58-2.23-.58-11.27-.58-22.64,0-33.91,.19-2.62,.97-5.44,4.08-6.02,2.91-.58,5.25,.49,6.61,3.11,.78,1.36,1.65,2.23,3.3,1.94s1.17-1.55,1.17-2.53c.1-2.53,1.94-1.75,3.4-1.94,1.85-.19,1.94,1.07,1.94,2.33-.1,17.49,.1,35.07-.29,52.56-.1,6.02-4.27,8.45-11.76,8.06-5.64-.39-7.58-2.53-7.58-9.13Zm4.66-31.09v11.66c0,2.82,1.17,4.76,4.37,4.86,3.3,.1,4.47-1.85,4.57-4.66,.1-7.97,.1-15.84,0-23.71,0-2.82-1.36-4.66-4.57-4.57-3.3,.1-4.27,2.04-4.27,4.86-.19,3.79-.1,7.68-.1,11.56Z" fill="#fdfdfd"/>
  <path d="M716.9,295.27c0-12.63,.1-25.16-.1-37.79,0-3.4,.68-4.86,4.27-4.47,3.3,.29,6.51,.19,9.81,0,2.72-.19,3.89,.58,3.79,3.5,0,1.94-1.46,5.05,1.17,5.73,2.91,.87,2.91-2.62,3.89-4.27,5.54-8.74,19.63-8.74,25.16,.1,2.91,4.66,3.5,4.66,6.12,.19,3.21-5.34,8.84-7.87,15.16-6.61,5.93,1.17,9.91,5.34,10.69,11.85,.49,3.3,.78,6.51,.78,9.81,.1,19.82-.1,39.83,.1,59.65,0,3.5-.97,4.76-4.47,4.37-3.3-.29-6.51-.29-9.81,0-3.5,.29-4.08-1.17-4.08-4.27,.1-18.95,.1-37.99,0-56.84,0-5.54-2.43-8.06-7-7.87-3.89,.19-6.22,2.62-6.32,7.09-.1,9.81,0,19.53,0,29.34s-.19,18.95,.1,28.47c.1,3.4-1.17,4.27-4.27,4.08-3.11-.29-6.22-.29-9.33,0-3.5,.39-4.47-.97-4.37-4.47,.19-17.97,.1-36.04,.1-54.12,0-1.65-.1-3.5-.39-5.05-.87-3.79-3.3-5.73-7-5.44-3.59,.29-5.73,2.33-6.22,5.73-.19,1.36-.1,2.82-.19,4.18,0,18.17-.1,36.34,.1,54.5,0,3.4-.68,4.86-4.27,4.47-3.11-.29-6.22-.29-9.33,0-3.69,.39-4.37-1.17-4.27-4.47,.29-12.24,.19-24.87,.19-37.4Z" fill="#db0023"/>
  <path d="M174.39,277c0-18.75,.1-37.6-.1-56.35,0-3.59,.87-5.05,4.66-4.57,4.27,.58,9.81-1.85,12.53,.97,2.53,2.53,.68,8.06,.78,12.14,.1,9.52,0,18.95,.1,28.47,0,1.17-.68,2.72,1.17,3.21,1.46,.39,2.14-.87,2.91-1.85,4.37-6.51,10.4-8.16,17.88-6.61,5.05,1.17,7.68,4.47,8.84,9.04,.49,1.65,.78,3.4,.78,5.05-.19,20.01,.97,40.12-.68,60.04-.68,7.58-3.89,11.17-10.4,12.53-8.26,1.65-13.21-.39-17-7-.39-.68-.78-1.36-1.17-2.04-.58-.97-1.36-1.17-2.43-.87s-.87,1.17-.97,1.85c-.39,2.23,1.17,5.15-.87,6.61-1.94,1.46-4.86,.49-7.29,.58-8.65,.1-8.65,0-8.65-8.84-.1-17.58-.1-34.98-.1-52.37Zm17.78,18.56c0,6.51-.1,13.02,0,19.53,.1,4.95,2.23,7.29,6.51,7.19,3.89,0,6.32-2.53,6.41-7,.1-13.31,.1-26.62,0-40.03-.1-4.37-2.82-6.9-6.61-6.8-4.08,.1-6.12,2.43-6.22,7-.1,6.7,0,13.5-.1,20.11Z" fill="#db0023"/>
  <path d="M517.64,301.58c0,10.49-.19,21.18,.1,31.67,.1,3.5-1.17,4.66-4.47,4.37-2.91-.29-5.83-.19-8.84,0-2.91,.19-3.98-.87-3.69-3.69,.1-1.17,.68-2.72-.97-3.3-1.65-.68-2.62,.68-3.3,1.85-3.5,6.41-9.42,7.09-15.64,6.32-6.32-.78-10.01-4.76-11.17-10.78-2.04-9.81-2.43-19.72-.1-29.53,2.62-10.59,13.41-14.96,23.51-9.52,.97,.49,1.75,1.17,2.72,1.75,2.82,1.65,3.98,1.17,4.08-2.14,.1-5.73,.1-11.46,0-17.29-.1-3.79-2.33-5.73-6.32-5.93-4.08-.19-6.8,1.75-6.9,5.73-.1,2.91-1.07,3.89-3.79,3.59-1.07-.1-2.14,0-3.3,0q-8.74,0-8.45-9.04c.29-9.04,3.4-12.44,12.44-13.7,7-1.07,13.89-.78,20.89,.29,8.26,1.17,12.82,6.7,13.12,16.52,.29,10.88,.1,21.76,.1,32.64q-.1,.19,0,.19Zm-17.88,10.1c0-2.14,.19-4.37-.1-6.51-.39-3.21-2.43-4.95-5.63-5.15-3.3-.19-6.02,.87-6.8,4.18-1.07,4.66-1.07,9.52,0,14.28,.78,3.5,3.4,4.76,6.61,4.57,3.5-.1,5.44-2.14,5.83-5.54,.29-1.85,.1-3.89,.1-5.83Z" fill="#db0023"/>
  <path d="M539.89,298.67c0-8.55-.1-17.1,0-25.65,0-2.43-.1-4.37-3.4-3.89-2.14,.29-2.62-1.07-2.53-2.82,.1-2.82,.1-5.63,0-8.36-.19-3.01,0-5.25,3.98-4.86,2.04,.19,1.85-1.55,1.85-3.01,0-5.44,.1-10.88,0-16.32-.1-2.72,.49-3.98,3.5-3.79,3.69,.29,7.48,.19,11.17,0,2.43-.1,3.3,.78,3.21,3.21-.19,5.63,0,11.17-.1,16.81-.1,2.43,.78,3.21,3.21,3.3,2.91,.1,6.51-1.46,8.36,.87,1.75,2.04,.58,5.73,.58,8.55,.1,6.51,0,6.51-6.7,6.51-6.02,0-5.44-.68-5.44,5.54v39.06c0,7.29,1.26,8.74,8.36,9.33,2.14,.19,2.62,1.07,2.62,2.91-.1,1.55,0,3.11,0,4.66q0,8.36-8.16,8.45c-16.32,.39-20.5-3.79-20.6-19.92,.1-7,.1-13.8,.1-20.6Z" fill="#db0023"/>
  <path d="M621.79,295.17c0-12.44,.19-24.87-.1-37.31-.1-3.98,1.17-5.25,5.05-4.76,2.91,.29,5.83,.19,8.84,0,2.53-.1,3.5,.87,3.21,3.3-.1,.49-.1,.97,0,1.36,.29,1.36-.97,3.4,1.26,3.89,2.23,.58,2.33-1.46,3.01-2.82,3.4-6.8,12.34-9.52,18.95-5.63,2.91,1.65,3.5,4.47,3.5,7.19,.29,7.48,.1,14.96,.19,22.35,0,1.85-.78,2.53-2.53,2.33h-.49c-3.5-.1-7.58,1.17-10.1-.49-2.91-1.75-.87-6.22-1.17-9.62-.39-4.47-2.23-6.61-6.12-6.51-3.69,.1-5.73,2.33-5.73,6.9-.1,19.14-.1,38.18,.1,57.32,0,3.89-1.17,5.25-4.95,4.86-3.11-.29-6.22-.29-9.33,0-2.91,.19-3.69-.87-3.69-3.69,.19-12.92,.1-25.84,.1-38.67Z" fill="#db0023"/>
  <path d="M900.43,303.43c0,10.1-.1,20.11,.1,30.31,.1,3.11-.97,4.08-3.98,3.89-3.11-.19-6.22-.19-9.33,0-2.82,.19-3.98-.87-3.69-3.69,.1-1.17,.49-2.72-1.07-3.3-1.65-.58-2.62,.58-3.3,1.85-3.69,6.8-10.01,7.29-16.61,6.22-5.73-.87-9.04-4.76-10.3-10.2-2.23-9.62-2.62-19.43-.49-29.05,2.53-11.56,13.5-16.22,24-10.4,1.17,.58,1.94,1.46,3.11,2.04,1.94,.97,3.5,.29,3.59-1.94,.1-6.22,.19-12.44-.19-18.65-.19-3.5-3.21-5.34-7.09-5.25-3.69,.1-6.22,1.94-6.22,5.54s-1.46,3.89-4.47,3.89c-11.76-.19-10.49,.58-10.69-3.11-.87-13.7,1.55-18.07,10.78-19.53,7.09-1.07,14.18-1.07,21.37,0,8.36,1.17,12.53,5.44,13.7,13.89,1.26,9.33,.58,18.56,.78,27.88,.1,3.5,0,6.61,0,9.62Zm-17.68,8.06c-.19-1.94-.29-3.98-.49-5.93-.49-3.59-2.53-5.54-6.22-5.54s-5.83,1.65-6.51,5.34c-.78,4.18-.68,8.26,.1,12.53,.68,3.69,2.91,5.44,6.41,5.34,3.4,0,5.54-1.65,6.12-5.15,.39-2.33,.49-4.47,.58-6.61Z" fill="#db0023"/>
  <path d="M573.5,430.12q6.22-.68,6.41,4.76c.19,4.47,1.55,6.51,4.86,6.61,3.01,.1,5.15-1.07,5.54-4.27,.1-.97,.19-1.85,.19-2.82,0-12.73,.87-12.63-10.2-16.42-3.89-1.26-6.02-4.08-6.41-8.16-.68-7-.87-13.89,.39-20.89,.68-3.89,2.82-6.02,6.9-6.12,.29,0,.68-.1,.97-.1,15.16-1.36,14.77,4.76,14.67,15.84,0,1.85-1.17,1.94-2.43,1.75-1.17-.19-3.01,.78-3.4-1.36-.19-1.07-.19-2.14-.29-3.3-.19-3.21-1.17-5.44-4.95-5.44s-5.15,2.23-5.25,5.63c0,1.17-.1,2.53-.1,3.69,0,7.97,.19,8.74,7.58,11.17,7.19,2.33,10.1,7,9.81,14.28-.29,5.73,.68,11.46-.97,17.2-1.26,5.05-3.4,6.61-8.45,7-11.85,.87-14.67-1.75-14.86-13.7v-5.34Z" fill="#fdfdfd"/>
  <path d="M314.2,298.57c0-8.55-.1-17.1,0-25.65,0-2.53-.29-4.37-3.5-3.89-2.33,.39-2.91-.97-2.82-3.01,.1-3.3,.19-6.51,0-9.81-.1-2.43,.78-3.5,3.21-3.21,2.62,.29,3.11-1.26,3.11-3.5-.1-5.15,.19-10.3-.1-15.35-.19-3.59,1.17-4.57,4.47-4.27,3.4,.29,6.8,.19,10.3,0,2.43-.1,3.3,.78,3.21,3.21-.19,5.44,.1,10.88-.1,16.32-.1,2.91,.87,3.69,3.69,3.69,8.55,.1,8.55,.19,8.45,8.84q0,7-7.19,7-5.05,0-5.05,4.95v40.03c0,7.19,.87,8.06,8.06,8.94,1.85,.19,2.43,.87,2.43,2.53,0,3.5-.1,6.8,0,10.3,.1,2.04-1.07,2.72-2.82,2.91-4.47,.49-8.94,.78-13.41,0-7.97-1.36-11.66-5.44-11.95-13.6-.29-8.84-.1-17.68-.1-26.52l.1,.1Z" fill="#db0023"/>
  <path d="M919.76,295.17c0-12.63,.1-25.16-.1-37.79,0-3.11,.78-4.57,4.08-4.27,3.11,.29,6.22,.19,9.33,0,3.01-.19,3.89,.97,3.59,3.69-.1,1.07-.1,2.14,0,3.3,.19,2.33,1.55,1.94,2.91,1.07,.58-.39,.78-1.26,1.17-2.04,3.5-6.9,11.37-9.52,18.46-6.22,2.33,1.17,3.5,3.01,3.79,5.44,1.36,8.16,.39,16.42,.68,24.58,.1,1.55-.78,2.14-2.23,2.14-3.3,0-6.51-.1-9.81,0-2.14,.1-2.53-1.17-2.53-2.91,.1-3.01,0-5.83,0-8.84,0-3.5-2.43-4.57-5.25-4.76-2.82-.19-5.34,.87-6.02,3.89-.39,1.65-.29,3.4-.29,5.15,0,18.46-.1,37.02,.1,55.48,0,3.5-.97,4.76-4.37,4.37-3.11-.29-6.22-.29-9.33,0-3.3,.29-4.27-.87-4.18-4.18,.19-12.63,0-25.45,0-38.08Z" fill="#db0023"/>
  <path d="M816.68,276.81c0-18.75,.1-37.6-.1-56.35,0-3.5,.97-4.76,4.37-4.37,3.11,.29,6.22,.29,9.33,0,3.69-.39,4.27,1.17,4.27,4.47-.19,13.6-.1,27.3-.1,40.9,0,23.8-.1,47.41,.1,71.21,0,3.79-1.07,5.34-4.95,4.95-2.82-.29-5.63-.29-8.36,0-3.5,.39-4.76-.87-4.76-4.57,.39-18.75,.19-37.5,.19-56.25Z" fill="#db0023"/>
  <path d="M155.93,295.75c0,7.68,.29,15.16-.1,22.83-.49,13.02-5.54,18.56-18.36,20.21-5.25,.68-10.49,.68-15.74-.19-11.37-1.94-16.32-6.7-17-18.07-.97-16.81-1.07-33.52,0-50.33,.78-12.44,6.7-17.2,20.79-18.46,5.44-.49,10.88-.1,16.22,.97,8.45,1.55,13.5,8.06,13.99,18.36,.49,8.26,.1,16.42,.19,24.68h0Zm-18.46-.19c0-6.8,.1-13.6,0-20.4-.1-5.34-2.33-7.48-7.38-7.38-4.76,.1-7,2.14-7.09,7.29-.1,13.6-.1,27.3,0,40.9,0,5.34,2.33,7.48,7.38,7.38,4.86-.1,6.9-2.04,7-7.19,.19-7,.1-13.8,.1-20.6Z" fill="#db0023"/>
  <path d="M250.95,439.74c3.5,.78,6.9,.49,10.3,.29,3.5-.19,2.91,2.14,2.72,3.98-.19,1.75,1.46,4.66-2.53,4.57-5.25-.1-10.49-.1-15.84,0-1.46,0-2.33-.29-2.23-2.04,.19-3.5-.29-7.09,.78-10.59,3.69-13.02,7.38-26.23,10.98-39.25,.39-1.46,.87-3.01,1.26-4.86h-11.08c-.39-.58-.78-.87-.78-1.17q-.39-7.58,7.38-7.58h3.3c9.52,0,10.78,1.65,8.26,11.27-3.89,14.48-8.06,28.85-12.14,43.33-.19,.68-.29,1.26-.39,2.04Z" fill="#fdfdfd"/>
  <path d="M479.65,404.08q5.54-.68,5.83,4.37c.78,10.1,1.46,20.11,2.14,30.22,.1,.97,.1,1.85,.19,2.82,.1,1.36,.19,2.82,2.23,2.82s2.04-1.36,2.14-2.91c.68-8.45,1.17-17.1,1.85-25.55,.19-2.62,.39-5.25,.68-7.97q.49-4.66,6.02-3.79c-.78,7.87-1.46,15.64-2.33,23.51-.58,5.63-1.26,11.08-1.65,16.71-.19,3.01-.97,4.37-4.37,4.27-8.84-.1-8.74,0-9.72-9.04-1.07-10.4-2.23-20.69-3.3-31.09,.1-1.46-.39-2.91,.29-4.37Z" fill="#fdfdfd"/>
  <path d="M293.6,296.34c-.19,6.8,.19,14.77-.49,22.64-1.07,12.63-5.44,17.78-17.88,19.63-5.44,.87-10.78,.87-16.22-.1-11.08-1.85-15.84-5.54-16.71-16.61-1.36-18.36-1.85-36.82,.39-55.18,1.07-8.74,6.32-13.02,15.16-14.38,6.12-.97,12.34-1.07,18.46-.1,10.4,1.55,15.45,6.9,16.61,17.39,.78,8.65,.68,17.2,.68,26.72Zm-18.56-3.01c-.29-5.54,.78-12.92-.49-20.4-.58-3.79-3.3-5.44-7.58-5.25-4.18,.19-6.7,2.14-6.8,6.02-.19,14.48-.1,28.85-.1,43.33,0,3.5,2.04,5.34,5.44,5.93,5.73,1.17,9.13-1.55,9.33-7.77,.39-6.61,.19-13.31,.19-21.86Z" fill="#db0023"/>
  <path d="M352.28,404.18c-1.46,14.09-3.01,28.27-4.37,42.46-.1,1.26-.58,2.04-1.94,1.94h-.49c-9.81,1.17-10.4,.68-11.37-9.13-1.17-11.76-2.33-23.41-3.5-35.17,5.83-1.36,5.73-1.26,6.12,4.08,.78,10.78,1.65,21.67,2.62,32.45,.1,1.26-.78,3.4,1.94,3.5,2.91,.1,2.14-2.14,2.23-3.59,.97-10.59,1.75-21.37,2.53-31.96,.29-5.44,.19-5.44,6.22-4.57Z" fill="#fdfdfd"/>
  <path d="M740.42,437.99c3.11-.68,5.05-.68,5.83,3.11,.68,3.01,5.34,3.11,7.19,.39,2.62-3.69,.39-9.91-3.98-11.27-8.74-2.82-9.23-3.5-9.33-12.63,0-1.17,0-2.14,.1-3.3,.29-10.1,5.54-13.8,15.25-10.59,2.91,.97,5.25,7,3.89,9.91-.58,1.17-1.46,.97-2.33,.97-1.17,0-2.23,.1-2.53-1.36-.19-.78-.19-1.55-.58-2.23-.78-1.46-2.14-2.14-3.79-2.04s-2.91,.78-3.5,2.53c-1.94,4.86,0,9.13,4.95,10.49,8.26,2.43,8.36,2.43,8.65,11.08,.1,3.11,0,6.22-.39,9.33-.68,5.25-2.72,6.9-8.06,7.09h-.49c-9.52,.1-11.17-1.65-10.88-11.46Z" fill="#fdfdfd"/>
  <path d="M750.23,436.34s.1,.87,.1,1.94c-1.17-.87-.1-1.85-.1-1.94Z" fill="#fdfdfd"/>
  <path d="M679.69,295.27c0-12.63,.1-25.07-.1-37.7-.1-3.3,.58-4.86,4.27-4.47,3.3,.39,6.51,.29,9.81,0,3.21-.19,3.89,1.07,3.89,3.98-.1,17.49-.1,35.07-.1,52.56,0,7.97-.1,15.84,.1,23.71,.1,3.21-.68,4.57-4.08,4.27-3.4-.29-6.8-.29-10.3,0-3.01,.19-3.59-1.07-3.59-3.69,.19-12.82,.1-25.84,.1-38.67Z" fill="#db0023"/>
  <path d="M584.58,294.88c0-12.44,.19-24.77-.1-37.21-.1-3.79,1.17-4.86,4.76-4.57,3.11,.29,6.22,.29,9.33,0,3.11-.19,3.89,.97,3.89,3.89-.1,15.93-.1,31.96-.1,47.9,0,9.33-.19,18.65,.1,27.88,.1,3.98-1.17,5.15-5.05,4.76-3.11-.29-6.22-.19-9.33,0-2.91,.19-3.59-.97-3.59-3.69,.19-12.92,.1-25.94,.1-38.96Z" fill="#db0023"/>
  <path d="M422.23,434.98c0,.97,.1,1.85,0,2.82-.58,10.2-2.91,12.24-12.92,11.46-5.25-.39-8.55-5.25-7.19-10.2,.49-1.55,1.46-1.26,2.53-1.26,1.26,0,2.43-.19,3.11,1.75,1.17,3.98,4.76,5.15,7.29,2.62,2.72-2.72,1.17-10.2-2.43-11.56-1.07-.39-2.04-.68-3.21-.97-5.63-1.46-6.9-2.91-7.29-8.55-.29-4.27-.39-8.65,.68-12.92,.68-2.82,2.33-4.27,5.15-4.57,2.04-.19,3.98-.39,6.02-.29,5.93,.29,7.68,2.14,7.48,8.16,0,1.17,.68,3.01-1.65,3.11-1.55,.1-3.11,.19-3.4-2.04-.39-2.82-2.14-3.98-4.95-3.5s-3.11,2.62-3.3,4.86c-.39,4.86,.58,6.51,4.66,7.87,9.33,2.82,9.42,3.01,9.42,13.21Z" fill="#fdfdfd"/>
  <path d="M411.74,438.67c-.58-1.46-.39-2.53,0-3.5,.39,1.07,.49,2.04,0,3.5Z" fill="#fdfdfd"/>
  <path d="M619.07,427.59v11.37c0,2.33,1.17,3.79,3.5,4.27,2.23,.39,5.05,.19,5.54-2.14,.78-4.27,3.5-3.4,6.22-3.3,1.55,8.06-1.07,11.27-9.13,11.46-9.81,.29-12.53-2.23-12.63-12.14-.1-7.68-.19-15.16,0-22.83,.29-10.2,9.52-14.96,18.36-9.81,2.53,1.46,3.69,3.79,3.79,6.51,.19,5.44,.1,10.78,.1,16.52-5.15,.1-10.2,.1-15.74,.1Zm0-5.44q9.62,1.46,9.42-7.58v-1.36c.1-3.21-1.65-4.47-4.57-4.57-2.91,0-4.76,1.17-4.86,4.37-.1,3.01,0,6.12,0,9.13Z" fill="#fdfdfd"/>
  <path d="M536.1,427.59c-4.57,0-8.65,.1-12.82,0-2.04-.1-3.21,.39-3.01,2.82,.19,2.62,.1,5.25,.1,7.97s1.07,4.57,3.79,4.95c2.72,.39,5.05-.19,5.73-3.3,.97-3.98,3.79-1.65,5.83-2.23,.97,8.84-1.17,11.37-9.62,11.56-9.52,.19-12.24-2.33-12.34-11.95-.1-7.58,0-15.16,0-22.73,0-11.95,7.68-13.21,17.68-10.3,3.4,1.07,4.47,4.18,4.47,7.48,.29,4.95,.19,10.1,.19,15.74Zm-6.22-10.88v-2.82c.19-3.4-1.17-5.44-4.76-5.34-3.5,.1-4.86,2.14-4.76,5.54,.1,1.85,.1,3.69,0,5.63-.19,2.04,.39,3.3,2.82,3.11,1.17-.1,2.53-.1,3.69,0,2.53,.29,3.4-.78,3.11-3.21-.19-1.07-.1-1.94-.1-2.91Z" fill="#fdfdfd"/>
  <path d="M387.65,437.79c-.58,4.08,.49,8.45-3.79,10.3-4.86,2.04-10.1,2.04-14.96-.19-2.43-1.17-3.21-3.69-3.5-6.22-.87-10.3-.97-20.4,0-30.7,.49-5.25,2.72-7.09,8.06-7.77,2.53-.29,4.95-.19,7.38,.39,3.11,.78,5.25,2.62,5.83,5.83,1.07,5.44,.49,10.78,.68,16.22,.1,2.14-1.36,1.94-2.82,1.94-3.5,0-6.8,.1-10.3,0-2.04-.1-3.3,.29-3.11,2.72,.19,2.91,.1,5.83,.19,8.84,.1,2.33,1.36,3.69,3.69,4.08,2.33,.29,4.95-.1,5.44-2.53,1.17-4.37,3.98-2.91,7.19-2.91Zm-16.03-22.15c.19,7.29-1.46,6.9,6.41,6.9,.68,0,1.17,0,1.85-.1,.87-.1,1.36-.58,1.36-1.46-.1-3.11,.1-6.22-.29-9.23-.29-2.72-2.53-3.3-4.86-3.21-2.23,.1-3.89,.97-4.18,3.5-.19,1.46-.29,3.11-.29,3.59Z" fill="#fdfdfd"/>
  <path d="M995.54,295.46c0,12.73-.1,25.45,.1,38.18,0,2.91-.68,4.27-3.79,3.98-2.91-.29-5.83-.1-8.84-.1q-5.15,0-5.15-5.05v-63.34c0-.78-.1-1.55,0-2.33,.29-4.47-1.94-10.3,1.07-12.92,2.91-2.62,8.55-.39,13.02-.87,3.4-.29,3.79,1.26,3.69,4.08-.1,12.92-.1,25.55-.1,38.38Z" fill="#db0023"/>
  <path d="M656.38,448.09q-6.12,.58-6.12-5.15v-39.06c2.62,.19,5.93-2.23,5.83,3.01,0,.87,.29,1.46,1.17,1.65,.97,.1,1.94,.1,2.53-.78,.49-.78,.68-1.65,1.07-2.53,1.17-2.23,3.11-2.33,5.15-2.04,2.23,.29,2.62,1.85,2.72,3.69,.1,3.11-.1,6.22,.1,9.33,.29,3.3-1.26,3.59-4.27,2.72,0-1.46,.1-3.21,0-4.86-.19-2.53-1.75-3.98-4.27-3.79-2.33,.19-3.59,1.55-3.69,3.98-.1,5.44,0,10.88,0,16.32-.19,5.73-.19,11.66-.19,17.49Z" fill="#fdfdfd"/>
  <path d="M300.79,403.89c3.3-.39,6.32-1.17,5.83,3.5-.1,.97,.78,1.17,1.55,1.17,.97,0,1.85,0,2.23-1.17,.29-.87,.68-1.75,1.17-2.53,1.17-1.94,3.01-1.94,4.95-1.65,1.85,.19,2.62,1.46,2.72,3.21,.1,3.3,0,6.51,.29,9.81s-1.26,3.59-3.89,3.11c-1.07-1.26-.39-2.91-.49-4.37-.1-2.82-1.26-4.57-4.08-4.57s-4.08,1.94-4.08,4.66c-.1,5.83,0,11.76,0,17.58v15.64q-6.02,.49-6.02-4.95c-.19-13.12-.19-26.13-.19-39.44Z" fill="#fdfdfd"/>
  <path d="M437.29,403.89q5.93-.29,5.93,4.86v36.24c0,2.14,.1,3.69-3.01,3.69s-3.11-1.46-3.11-3.69c.19-13.6,.19-27.2,.19-41.1Z" fill="#fdfdfd"/>
  <path d="M781.03,448.38c-5.63,.19-5.73,.19-5.73-4.86v-34.88c0-1.46-.29-3.11,.49-4.76,1.46-.68,3.21-.1,5.15-.39,.1,15.06,.1,29.83,.1,44.89Z" fill="#fdfdfd"/>
  <path d="M725.16,448.19c-2.33,.49-4.18,.68-6.22-.19,0-13.89,.1-27.79-.1-41.68,0-2.43,1.07-2.72,3.11-2.82,2.23-.1,3.3,.39,3.3,3.01-.1,13.89-.1,27.59-.1,41.68Z" fill="#fdfdfd"/>
  <path d="M285.15,447.9c-2.04,.97-3.79,.68-5.93,.39v-44.3q5.93-.78,5.93,4.57v39.35Z" fill="#fdfdfd"/>
  <path d="M443.32,390.29h-5.73c-.29-2.33-1.07-4.86,.58-6.8,.68-.78,3.4-.78,4.27-.1,1.94,1.65,.49,4.37,.87,6.9Z" fill="#fdfdfd"/>
  <path d="M781.41,390.38h-5.83c-.19-2.43-1.17-4.95,.68-6.8,.78-.78,3.5-.87,4.27-.1,1.85,1.65,.39,4.18,.87,6.9Z" fill="#fdfdfd"/>
  <path d="M279.22,390.09c1.17-2.33-3.21-6.7,2.82-7,3.89-.19,3.21,2.23,3.21,4.47,0,5.25-3.89,1.75-6.02,2.53Z" fill="#fdfdfd"/>
  <path d="M719.24,390.29c.97-2.72-3.01-6.9,2.91-7.09,4.47-.1,3.11,3.01,3.01,4.95-.29,4.76-3.98,.78-5.93,2.14Z" fill="#fdfdfd"/>
  <path d="M44.01,248.25c0-6.51,.1-13.02,0-19.53,0-2.33,.68-3.21,3.11-3.3,13.02-.58,15.64,1.75,15.64,14.86,0,6.32,.1,12.63-.1,19.14-.19,8.65-3.3,11.66-11.95,11.76-.97,0-1.85-.1-2.82,0-3.01,.39-4.08-.68-3.98-3.79,.29-6.41,.1-12.82,.1-19.14Zm15.64,.68c0-4.37,.1-7.97,0-11.46-.19-7.38-2.04-8.94-9.42-8.65-2.14,.1-3.11,.58-3.01,2.91,.1,11.17,0,22.35,.1,33.52,0,.87-.29,1.85,.78,2.53,3.21,1.94,10.2-1.07,10.98-4.66,1.07-5.05,.39-10.1,.58-14.18Z" fill="#140b0c"/>
  <path d="M688.15,426.43v-11.66c0-2.82,1.17-4.76,4.27-4.86,3.21-.1,4.57,1.75,4.57,4.57,.1,7.97,.1,15.84,0,23.71,0,2.82-1.26,4.76-4.57,4.66-3.21-.1-4.37-1.94-4.37-4.86,0-3.89,.1-7.77,.1-11.56Zm3.98,11.85c.19,0,.39-.1,.58-.1v-23.71h-.58v23.8Z" fill="#140b0c"/>
  <path d="M192.27,295.56c0-6.61-.1-13.31,0-19.92,.1-4.66,2.23-6.9,6.22-7,3.89-.1,6.61,2.33,6.61,6.8,.19,13.31,.1,26.62,0,40.03,0,4.57-2.53,7-6.41,7-4.18,.1-6.41-2.33-6.51-7.19,0-6.7,0-13.21,.1-19.72Zm9.42,.29v-19.53c0-1.94,.29-4.18-2.91-4.27-3.21-.19-3.5,1.85-3.5,4.18v38.67c0,2.04,.29,3.98,3.3,4.08,2.91,0,3.21-1.75,3.21-3.98-.1-6.41-.1-12.82-.1-19.14Z" fill="#140b0c"/>
  <path d="M499.76,311.69c0,2.04,.19,3.98,0,6.02-.49,3.4-2.43,5.34-5.83,5.54-3.3,.1-5.83-1.17-6.61-4.57-1.07-4.76-1.07-9.62,0-14.28,.78-3.5,3.5-4.37,6.8-4.18s5.25,1.85,5.63,5.15c.19,1.94,0,4.18,0,6.32Zm-2.82-.29h-.29c0-1.65,.1-3.4,0-5.05s-.97-2.91-2.82-3.01-3.3,.49-3.59,2.62c-.58,3.79-.58,7.68,.1,11.46,.29,1.65,1.26,2.33,2.91,2.33,1.75,.1,3.11-.58,3.3-2.43,.1-2.04,.19-3.98,.39-5.93Z" fill="#140b0c"/>
  <path d="M882.75,311.49c-.1,2.14-.19,4.27-.68,6.41-.68,3.5-2.82,5.15-6.12,5.15-3.5,0-5.73-1.55-6.41-5.34-.68-4.18-.87-8.26-.1-12.53,.68-3.59,2.91-5.34,6.51-5.34s5.73,1.75,6.22,5.54c.29,2.14,.39,4.18,.58,6.12Zm-3.69-.19h0v-5.05c0-1.85-1.17-2.82-2.91-2.91-1.85-.1-3.5,.58-3.5,2.72-.1,3.69-.1,7.38,0,11.08,.1,1.75,1.17,2.72,3.11,2.72,2.14,0,3.21-.97,3.4-3.01,0-1.85-.1-3.69-.1-5.54Z" fill="#140b0c"/>
  <path d="M137.47,295.56c0,6.8,.1,13.6,0,20.4-.1,5.15-2.14,7.09-7,7.19-5.05,.1-7.38-2.04-7.38-7.38-.1-13.6-.1-27.3,0-40.9,0-5.05,2.23-7.19,7.09-7.29,5.05-.1,7.29,2.04,7.38,7.38,0,6.9-.1,13.8-.1,20.6Zm-3.01-.1v-20.01c0-2.72-.78-4.37-3.89-4.47-3.21-.1-4.47,1.17-4.47,4.37,.1,13.31,.1,26.62,0,40.03,0,3.11,1.17,4.47,4.47,4.37,3.11,0,3.98-1.46,3.98-4.37-.1-6.61-.1-13.21-.1-19.92Z" fill="#140b0c"/>
  <path d="M275.05,293.33c0,8.55,.19,15.25-.1,21.96-.19,6.22-3.59,8.84-9.33,7.77-3.4-.68-5.34-2.43-5.44-5.93,0-14.48-.1-28.85,.1-43.33,0-3.89,2.53-5.93,6.8-6.02,4.27-.19,6.9,1.36,7.58,5.25,.97,7.29,0,14.77,.39,20.31Zm-3.5,2.23v-20.01c0-2.72-.58-4.47-3.79-4.47-3.21-.1-4.57,1.17-4.57,4.37v40.03c0,3.11,1.17,4.47,4.37,4.47,3.5,0,3.98-1.94,3.98-4.76,0-6.7,0-13.21,0-19.63Z" fill="#140b0c"/>
  <path d="M619.07,422.15c0-3.01-.1-6.02,0-9.13,.1-3.11,1.94-4.37,4.86-4.37s4.66,1.36,4.57,4.57v1.36c.19,9.04,.19,9.13-9.42,7.58Zm5.25-9.72c-2.04,2.14-1.36,3.98-.39,5.83,1.07-1.75,.78-3.5,.39-5.83Z" fill="#140b0c"/>
  <path d="M529.88,416.71c0,.97-.1,1.85,0,2.82,.29,2.43-.58,3.5-3.11,3.21-1.17-.19-2.53-.1-3.69,0-2.43,.29-2.91-.97-2.82-3.11,.1-1.85,.1-3.69,0-5.63-.1-3.4,1.17-5.44,4.76-5.54,3.5-.1,4.95,1.94,4.76,5.34,0,1.07,.1,1.94,.1,2.91Zm-4.47,1.46c.19-1.75,1.07-3.59-.49-5.34-.49,1.94-1.07,3.69,.49,5.34Z" fill="#140b0c"/>
  <path d="M371.62,415.64c0-.58,.1-2.14,.29-3.69,.29-2.53,2.04-3.4,4.18-3.5,2.33-.1,4.57,.58,4.86,3.21,.39,3.11,.29,6.12,.29,9.23,0,.97-.58,1.36-1.36,1.46-.68,.1-1.17,.1-1.85,.1-8.06,.1-6.22,.58-6.41-6.8Zm4.76-3.01c-1.07,2.14-.49,3.79,0,5.44,.68-1.85,1.26-3.59,0-5.44Z" fill="#140b0c"/>
  <path d="M59.65,248.93c-.19,4.18,.49,9.13-.68,14.09-.87,3.59-7.87,6.61-10.98,4.66-1.07-.68-.78-1.55-.78-2.53,0-11.17,0-22.35-.1-33.52,0-2.33,.97-2.82,3.01-2.91,7.38-.29,9.23,1.26,9.42,8.65,.19,3.5,.1,7.19,.1,11.56Z" fill="#fdfdfd"/>
  <path d="M692.13,438.28v-23.8h.58v23.71c-.19,0-.39,0-.58,.1Z" fill="#fff"/>
  <path d="M201.69,295.85v19.14c0,2.23-.29,3.98-3.21,3.98s-3.21-1.94-3.3-4.08v-38.67c0-2.33,.39-4.37,3.5-4.18,3.11,.19,2.82,2.33,2.91,4.27,.1,6.41,.1,12.92,.1,19.53Z" fill="#fdfdfd"/>
  <path d="M496.95,311.4c-.19,1.94-.29,3.98-.58,5.93-.19,1.85-1.46,2.53-3.3,2.43-1.55-.1-2.53-.68-2.91-2.33-.68-3.79-.78-7.68-.1-11.46,.39-2.14,1.75-2.72,3.59-2.62,1.94,.1,2.72,1.26,2.82,3.01,.1,1.65,0,3.4,0,5.05h.49Z" fill="#fdfdfd"/>
  <path d="M879.05,311.3c0,1.85,.1,3.69,0,5.54-.1,1.94-1.17,3.01-3.4,3.01-1.85,0-3.01-.87-3.11-2.72-.1-3.69-.19-7.38,0-11.08,.1-2.14,1.65-2.82,3.5-2.72,1.75,.1,2.91,1.07,2.91,2.91,.1,1.65,.1,3.4,.1,5.05h0Z" fill="#fdfdfd"/>
  <path d="M134.46,295.46c0,6.7-.1,13.31,0,20.01,0,2.82-.87,4.27-3.98,4.37-3.3,.1-4.47-1.26-4.47-4.37,.1-13.31,.1-26.62,0-40.03,0-3.21,1.26-4.37,4.47-4.37,3.21,.1,3.89,1.65,3.89,4.47,.1,6.61,.1,13.31,.1,19.92Z" fill="#fdfdfd"/>
  <path d="M271.55,295.56v19.53c0,2.82-.49,4.76-3.98,4.76-3.3,0-4.37-1.36-4.37-4.47v-40.03c0-3.21,1.36-4.37,4.57-4.37,3.3,.1,3.79,1.75,3.79,4.47v20.11Z" fill="#fdfdfd"/>
  <path d="M624.32,412.44c.39,2.33,.68,4.18-.39,5.83-1.07-1.85-1.65-3.69,.39-5.83Z" fill="#fdfdfd"/>
  <path d="M525.41,418.17c-1.55-1.75-.97-3.5-.49-5.34,1.46,1.75,.68,3.59,.49,5.34Z" fill="#fdfdfd"/>
  <path d="M376.38,412.63c1.36,1.94,.78,3.59,0,5.44-.49-1.75-1.07-3.4,0-5.44Z" fill="#fdfdfd"/>
</svg>