<svg xmlns="http://www.w3.org/2000/svg" viewBox="0 0 24 24">
  <path d="M19.82,7.14h-3.87v-2.12c0-.55-.45-1-1-1H3c-.55,0-1,.45-1,1v11.53c0,.55,.45,1,1,1h.5c.03,1.35,1.14,2.43,2.49,2.43s2.46-1.08,2.49-2.43h6.52c.03,1.35,1.14,2.43,2.49,2.43s2.46-1.08,2.49-2.43h1.02c.55,0,1-.45,1-1v-7.14c0-.25-.1-.5-.27-.68l-1.17-1.27c-.19-.21-.46-.32-.74-.32ZM7.47,17.55c-.02,.8-.68,1.43-1.48,1.43s-1.46-.63-1.48-1.43c-.01-.02-.01-.04-.01-.06,0-.36,.13-.68,.35-.94,.26-.34,.68-.55,1.14-.55s.88,.21,1.14,.55c.22,.26,.35,.58,.35,.94,0,.02,0,.04-.01,.06Zm7.48-1h-6.66c-.36-.91-1.25-1.55-2.3-1.55s-1.93,.64-2.3,1.55h-.69V5.02H14.95v11.54Zm4.02,1c-.02,.8-.68,1.43-1.48,1.43s-1.46-.63-1.48-1.43c-.01-.02-.01-.04-.01-.06,0-.36,.13-.68,.35-.94,.26-.34,.68-.55,1.14-.55s.88,.21,1.14,.55c.22,.26,.35,.58,.35,.94,0,.02,0,.04-.01,.06Zm2.03-1h-1.21c-.36-.91-1.25-1.55-2.3-1.55-.58,0-1.12,.2-1.54,.54v-7.41h3.87l1.18,1.27v7.15Z" />
</svg>