<svg xmlns="http://www.w3.org/2000/svg" viewBox="0 0 24 24">
  <path class="cls-1" d="M19.01,2H4.98c-.54,0-.98,.44-.98,.98V21.01c0,.54,.44,.98,.98,.98H14.9c-.36-.27-.68-.61-.92-1H5V2.99h14V13.2c.35,.09,.69,.22,.99,.41V2.98c0-.54-.44-.98-.98-.98Z" />
  <path class="cls-1" d="M18,14.07c-2.22,0-4.02,1.8-4.02,4.01s1.8,4.01,4.02,4.01,4.01-1.8,4.01-4.01-1.8-4.01-4.01-4.01Zm0,7.02c-1.67,0-3.02-1.35-3.02-3.01s1.35-3.01,3.02-3.01,3.01,1.35,3.01,3.01-1.35,3.01-3.01,3.01Z" />
  <path class="cls-1" d="M19.75,17.02l-1.02,1.02v.05c0,.21-.09,.4-.24,.53v.95c0,.28-.22,.5-.5,.5s-.5-.22-.5-.5v-.95c-.14-.13-.23-.32-.23-.53,0-.41,.33-.74,.73-.74h0l1.04-1.04c.19-.2,.51-.2,.71,0,.19,.19,.19,.51,0,.71Z" />
  <path class="cls-1" d="M16.53,6.5H7.52c-.28,0-.5-.22-.5-.5s.22-.5,.5-.5h9.02c.28,0,.5,.22,.5,.5s-.22,.5-.5,.5Z" />
  <path class="cls-1" d="M16.52,9.52H7.5c-.28,0-.5-.22-.5-.5s.22-.5,.5-.5h9.02c.28,0,.5,.22,.5,.5s-.22,.5-.5,.5Z" />
  <path class="cls-1" d="M16.53,12.51H7.52c-.28,0-.5-.22-.5-.5s.22-.5,.5-.5h9.02c.28,0,.5,.22,.5,.5s-.22,.5-.5,.5Z" />
  <path class="cls-1" d="M7.52,14.51h7.13c-.35,.28-.65,.62-.87,1H7.52c-.28,0-.5-.23-.5-.5s.22-.5,.5-.5Z" />
  <path class="cls-1" d="M12.98,18.08c0,.15,.01,.29,.02,.43H7.46c-.28,0-.5-.22-.5-.5s.22-.5,.5-.5h5.56c-.03,.18-.04,.38-.04,.57Z" />
</svg>